<svg xmlns="http://www.w3.org/2000/svg" viewBox="0 0 500 500"><g id="freepik--background-simple--inject-17"><path d="M388.26,71.52s-65.12-54.44-147.45-35-140.71,96-189.55,156.63S1.71,333.09,47.47,385.92,142.44,403,219,428.1,313,472.52,388,448s114.57-132.12,85.7-232.74S388.26,71.52,388.26,71.52Z" style="fill:#6053FC"></path><path d="M388.26,71.52s-65.12-54.44-147.45-35-140.71,96-189.55,156.63S1.71,333.09,47.47,385.92,142.44,403,219,428.1,313,472.52,388,448s114.57-132.12,85.7-232.74S388.26,71.52,388.26,71.52Z" style="fill:#fff;opacity:0.7000000000000001"></path></g><g id="freepik--Clouds--inject-17"><path d="M455.45,209.28c-1.91-1-2.78-.17-3.47-1s1.91-3.12-3.29-5.38c0,0-.35-4.85-7.46-5s-5.2,4.85-7.1,6.06-2.43-.69-4.34.52-1,3.64-2.6,4-3.64-1.56-5.55-.35-1.9,2.26-2.77,2.26-2.6-.69-3.64,0-2.25,1.56-2.25,1.56h43.86A2.24,2.24,0,0,0,455.45,209.28Z" style="fill:none;stroke:#92989b;stroke-linecap:round;stroke-linejoin:round;stroke-width:0.9836334586143494px"></path><path d="M429.5,208.57a5.14,5.14,0,0,1-.77.36" style="fill:none;stroke:#92989b;stroke-linecap:round;stroke-linejoin:round;stroke-width:0.9836334586143494px"></path><path d="M438.89,200.47a3,3,0,0,0-1.7,2.11c-.31,1.59-1.06,2.65-1.9,2.75s-4-.21-4.55,1a4.57,4.57,0,0,0-.3,1.06" style="fill:none;stroke:#92989b;stroke-linecap:round;stroke-linejoin:round;stroke-width:0.9836334586143494px"></path><line x1="425.11" y1="208.18" x2="428.15" y2="208.18" style="fill:none;stroke:#92989b;stroke-linecap:round;stroke-linejoin:round;stroke-width:0.9836334586143494px"></line><path d="M452,208.18h20.5s1.65-4.94-4.39-8.23-8.79-.55-11-3.3,6-9.89-10.43-17c0,0-1.1-15.38-23.62-15.93s-16.48,15.38-22.52,19.23-7.69-2.2-13.73,1.65-3.3,11.53-8.24,12.63S367,192.26,361,196.1s-6,7.14-8.79,7.14-8.24-2.2-11.53,0-7.14,4.94-7.14,4.94h88.12" style="fill:none;stroke:#92989b;stroke-linecap:round;stroke-linejoin:round;stroke-width:0.9836334586143494px"></path><path d="M385.88,197.69a18.47,18.47,0,0,1-2.45,1.16" style="fill:none;stroke:#92989b;stroke-linecap:round;stroke-linejoin:round;stroke-width:0.9836334586143494px"></path><path d="M388.86,193.83a14.82,14.82,0,0,1,.94-3.36c1.68-3.69,11.73-2.68,14.41-3s5-3.69,6-8.71a9.38,9.38,0,0,1,5.36-6.71" style="fill:none;stroke:#92989b;stroke-linecap:round;stroke-linejoin:round;stroke-width:0.9836334586143494px"></path><path d="M143.24,104.79c-1.43-.78-2.08-.13-2.6-.78s1.43-2.34-2.47-4c0,0-.26-3.64-5.59-3.78s-3.9,3.65-5.33,4.56-1.83-.52-3.26.39-.78,2.73-1.95,3-2.73-1.17-4.16-.26-1.43,1.69-2.08,1.69-2-.52-2.73,0-1.69,1.17-1.69,1.17h32.9A1.68,1.68,0,0,0,143.24,104.79Z" style="fill:none;stroke:#92989b;stroke-linecap:round;stroke-linejoin:round;stroke-width:0.9836334586143494px"></path><path d="M123.78,104.25a6.42,6.42,0,0,1-.58.28" style="fill:none;stroke:#92989b;stroke-linecap:round;stroke-linejoin:round;stroke-width:0.9836334586143494px"></path><path d="M130.82,98.18a2.21,2.21,0,0,0-1.27,1.59c-.24,1.19-.8,2-1.43,2.06s-3-.16-3.41.71a3.57,3.57,0,0,0-.23.8" style="fill:none;stroke:#92989b;stroke-linecap:round;stroke-linejoin:round;stroke-width:0.9836334586143494px"></path><line x1="120.48" y1="103.97" x2="122.77" y2="103.97" style="fill:none;stroke:#92989b;stroke-linecap:round;stroke-linejoin:round;stroke-width:0.9836334586143494px"></line><path d="M140.64,104H156s1.23-3.71-3.3-6.18-6.59-.42-8.24-2.47,4.53-7.42-7.83-12.78c0,0-.82-11.53-17.71-12S106.58,82.13,102,85s-5.76-1.64-10.3,1.24-2.47,8.65-6.18,9.48S76.91,92,72.38,94.9s-4.53,5.36-6.59,5.36-6.18-1.65-8.66,0S51.78,104,51.78,104h66.1" style="fill:none;stroke:#92989b;stroke-linecap:round;stroke-linejoin:round;stroke-width:0.9836334586143494px"></path><path d="M91.06,96.09a13.44,13.44,0,0,1-1.84.87" style="fill:none;stroke:#92989b;stroke-linecap:round;stroke-linejoin:round;stroke-width:0.9836334586143494px"></path><path d="M93.29,93.2A10.63,10.63,0,0,1,94,90.68c1.25-2.77,8.8-2,10.81-2.27s3.77-2.76,4.52-6.53a7.06,7.06,0,0,1,4-5" style="fill:none;stroke:#92989b;stroke-linecap:round;stroke-linejoin:round;stroke-width:0.9836334586143494px"></path></g><g id="freepik--House2--inject-17"><path d="M90.49,273.12s14,1.39,21.15,10.09c0,0,7.51-10.08,21-9.87a27.28,27.28,0,1,0-42.16-.2Z" style="fill:#6053FC"></path><path d="M90.49,273.12s14,1.39,21.15,10.09c0,0,7.51-10.08,21-9.87a27.28,27.28,0,1,0-42.16-.2Z" style="fill:#fff;opacity:0.2"></path><polygon points="112.56 311.08 111.17 240.9 110.83 311.8 112.56 311.08" style="fill:#828282"></polygon><path d="M111.88,280.56s4.74-8.53,13.27-11.14c0,0-9,2.14-13.5,9.48Z" style="fill:#828282"></path><path d="M111.53,256.87s5.09-9,13.62-11.61c0,0-9.09,2.48-13.59,9.82Z" style="fill:#828282"></path><path d="M111.67,268.78s5-8.83,13.48-11.44c0,0-9,2.14-13.5,9.48Z" style="fill:#828282"></path><path d="M111.18,262.56s-4.57-8.53-12.8-11.14c0,0,8.69,2.13,13,9.48Z" style="fill:#828282"></path><path d="M111.18,274.4s-4.57-8.53-12.8-11.13c0,0,8.69,2.13,13,9.47Z" style="fill:#828282"></path><path d="M433.77,304.93s14,1.38,21.14,10.08c0,0,7.52-10.07,21-9.87a27.27,27.27,0,1,0-42.17-.19Z" style="fill:#6053FC"></path><path d="M433.77,304.93s14,1.38,21.14,10.08c0,0,7.52-10.07,21-9.87a27.27,27.27,0,1,0-42.17-.19Z" style="fill:#fff;opacity:0.2"></path><polygon points="455.84 342.88 454.45 272.7 454.11 343.6 455.84 342.88" style="fill:#828282"></polygon><path d="M455.16,312.36s4.74-8.53,13.27-11.13c0,0-9,2.13-13.51,9.47Z" style="fill:#828282"></path><path d="M454.81,288.67s5.09-9,13.62-11.6c0,0-9.09,2.47-13.59,9.81Z" style="fill:#828282"></path><path d="M455,300.59s4.95-8.84,13.48-11.44c0,0-9,2.13-13.51,9.47Z" style="fill:#828282"></path><path d="M454.46,294.36s-4.57-8.53-12.8-11.13c0,0,8.68,2.13,13,9.47Z" style="fill:#828282"></path><path d="M454.46,306.2s-4.57-8.52-12.8-11.13c0,0,8.68,2.13,13,9.48Z" style="fill:#828282"></path><path d="M104.89,241.78s28.32,2.8,42.67,20.35c0,0,15.16-20.33,42.39-19.91a55,55,0,1,0-85.06-.39Z" style="fill:#6053FC"></path><path d="M104.89,241.78s28.32,2.8,42.67,20.35c0,0,15.16-20.33,42.39-19.91a55,55,0,1,0-85.06-.39Z" style="fill:#fff;opacity:0.4"></path><polygon points="149.42 318.36 146.62 176.77 145.93 319.82 149.42 318.36" style="fill:#828282"></polygon><path d="M148.06,256.78s9.55-17.2,26.76-22.46c0,0-18.16,4.3-27.24,19.12Z" style="fill:#828282"></path><path d="M147.34,209s10.27-18.16,27.48-23.41c0,0-18.33,5-27.41,19.8Z" style="fill:#828282"></path><path d="M147.62,233s10-17.81,27.2-23.07c0,0-18.16,4.3-27.24,19.12Z" style="fill:#828282"></path><path d="M146.64,220.46s-9.22-17.2-25.82-22.46c0,0,17.52,4.3,26.28,19.12Z" style="fill:#828282"></path><path d="M146.64,244.36s-9.22-17.21-25.82-22.46c0,0,17.52,4.3,26.28,19.11Z" style="fill:#828282"></path><rect x="174.68" y="243.3" width="2.22" height="53.26" style="fill:#fff;stroke:#636363;stroke-miterlimit:10;stroke-width:0.9836334586143494px"></rect><rect x="443.22" y="264.75" width="2.22" height="53.26" style="fill:#fff;stroke:#636363;stroke-miterlimit:10;stroke-width:0.9836334586143494px"></rect><rect x="269.37" y="267.71" width="171.63" height="69.54" style="fill:#fff;stroke:#636363;stroke-miterlimit:10;stroke-width:0.9836334586143494px"></rect><rect x="269.37" y="267.71" width="171.63" height="6.66" style="fill:#636363;stroke:#636363;stroke-miterlimit:10;stroke-width:0.9836334586143494px"></rect><polygon points="448.4 261.79 270.11 261.79 270.11 218.15 421.03 218.15 448.4 261.79" style="fill:#636363;stroke:#636363;stroke-miterlimit:10;stroke-width:0.9836334586143494px"></polygon><rect x="268.63" y="261.79" width="179.76" height="8.14" style="fill:#fff;stroke:#636363;stroke-miterlimit:10;stroke-width:0.9836334586143494px"></rect><rect x="179.56" y="244.81" width="120.28" height="58.18" style="fill:#fff;stroke:#636363;stroke-miterlimit:10;stroke-width:0.9836334586143494px"></rect><rect x="179.56" y="244.81" width="120.28" height="5.89" style="fill:#636363;stroke:#636363;stroke-miterlimit:10;stroke-width:0.9836334586143494px"></rect><polygon points="238.31 185.51 172.85 234.74 303.76 234.74 238.31 185.51" style="fill:#fff;stroke:#636363;stroke-miterlimit:10;stroke-width:0.9836334586143494px"></polygon><polygon points="238.31 192.22 186.24 231.38 290.37 231.38 238.31 192.22" style="fill:#636363;stroke:#636363;stroke-miterlimit:10;stroke-width:0.9836334586143494px"></polygon><rect x="83.9" y="326.49" width="7.83" height="90.97" style="fill:#fff;stroke:#636363;stroke-miterlimit:10;stroke-width:0.9836334586143494px"></rect><rect x="102.92" y="326.49" width="362.52" height="90.7" style="fill:#fff;stroke:#636363;stroke-miterlimit:10;stroke-width:0.9836334586143494px"></rect><rect x="102.92" y="326.49" width="362.52" height="10.02" style="fill:#636363;stroke:#636363;stroke-miterlimit:10;stroke-width:0.9836334586143494px"></rect><polygon points="319.43 323.69 73.83 323.69 94.53 296.84 319.43 296.84 319.43 323.69" style="fill:#636363;stroke:#636363;stroke-miterlimit:10;stroke-width:0.9836334586143494px"></polygon><rect x="73.83" y="323.69" width="199.72" height="5.59" style="fill:#fff;stroke:#636363;stroke-miterlimit:10;stroke-width:0.9836334586143494px"></rect><rect x="262.92" y="323.69" width="202.52" height="93.5" style="fill:#fff;stroke:#636363;stroke-miterlimit:10;stroke-width:0.9836334586143494px"></rect><rect x="268.13" y="329.11" width="192.11" height="88.08" style="fill:#636363;stroke:#636363;stroke-miterlimit:10;stroke-width:0.9836334586143494px"></rect><rect x="284.18" y="341.59" width="160" height="75.6" style="fill:#fff;stroke:#636363;stroke-miterlimit:10;stroke-width:0.9836334586143494px"></rect><rect x="288.35" y="365.31" width="36.13" height="14.25" style="fill:none;stroke:#a6a6a6;stroke-linecap:round;stroke-linejoin:round;stroke-width:0.9836334586143494px"></rect><rect x="326.92" y="365.31" width="36.13" height="14.25" style="fill:none;stroke:#a6a6a6;stroke-linecap:round;stroke-linejoin:round;stroke-width:0.9836334586143494px"></rect><rect x="288.35" y="382.33" width="36.13" height="14.25" style="fill:none;stroke:#a6a6a6;stroke-linecap:round;stroke-linejoin:round;stroke-width:0.9836334586143494px"></rect><rect x="326.92" y="382.33" width="36.13" height="14.25" style="fill:none;stroke:#a6a6a6;stroke-linecap:round;stroke-linejoin:round;stroke-width:0.9836334586143494px"></rect><rect x="288.35" y="399.36" width="36.13" height="14.25" style="fill:none;stroke:#a6a6a6;stroke-linecap:round;stroke-linejoin:round;stroke-width:0.9836334586143494px"></rect><rect x="326.92" y="399.36" width="36.13" height="14.25" style="fill:none;stroke:#a6a6a6;stroke-linecap:round;stroke-linejoin:round;stroke-width:0.9836334586143494px"></rect><rect x="365.49" y="365.31" width="36.13" height="14.25" style="fill:none;stroke:#a6a6a6;stroke-linecap:round;stroke-linejoin:round;stroke-width:0.9836334586143494px"></rect><rect x="404.06" y="365.31" width="36.13" height="14.25" style="fill:none;stroke:#a6a6a6;stroke-linecap:round;stroke-linejoin:round;stroke-width:0.9836334586143494px"></rect><rect x="365.49" y="382.33" width="36.13" height="14.25" style="fill:none;stroke:#a6a6a6;stroke-linecap:round;stroke-linejoin:round;stroke-width:0.9836334586143494px"></rect><rect x="404.06" y="382.33" width="36.13" height="14.25" style="fill:none;stroke:#a6a6a6;stroke-linecap:round;stroke-linejoin:round;stroke-width:0.9836334586143494px"></rect><rect x="365.49" y="399.36" width="36.13" height="14.25" style="fill:none;stroke:#a6a6a6;stroke-linecap:round;stroke-linejoin:round;stroke-width:0.9836334586143494px"></rect><rect x="404.06" y="399.36" width="36.13" height="14.25" style="fill:none;stroke:#a6a6a6;stroke-linecap:round;stroke-linejoin:round;stroke-width:0.9836334586143494px"></rect><polygon points="361.94 233.58 255.09 324.81 468.8 324.81 361.94 233.58" style="fill:#fff;stroke:#636363;stroke-miterlimit:10;stroke-width:0.9836334586143494px"></polygon><polygon points="361.94 246.02 276.95 318.59 446.94 318.59 361.94 246.02" style="fill:#636363;stroke:#636363;stroke-miterlimit:10;stroke-width:0.9836334586143494px"></polygon><rect x="172.85" y="234.74" width="132.59" height="10.63" style="fill:#fff;stroke:#636363;stroke-miterlimit:10;stroke-width:0.9836334586143494px"></rect><rect x="200.26" y="248.17" width="78.32" height="45.31" style="fill:#636363;stroke:#636363;stroke-miterlimit:10;stroke-width:0.9836334586143494px"></rect><rect x="211.45" y="248.17" width="55.94" height="45.31" style="fill:#fff;stroke:#636363;stroke-miterlimit:10;stroke-width:0.9836334586143494px"></rect><rect x="237.19" y="248.17" width="4.48" height="45.31" style="fill:#636363;stroke:#636363;stroke-miterlimit:10;stroke-width:0.9836334586143494px"></rect><rect x="237.46" y="243.13" width="3.92" height="55.38" transform="translate(510.25 31.4) rotate(90)" style="fill:#636363;stroke:#636363;stroke-miterlimit:10;stroke-width:0.9836334586143494px"></rect><rect x="119.7" y="346.63" width="78.32" height="55.94" style="fill:#636363;stroke:#636363;stroke-miterlimit:10;stroke-width:0.9836334586143494px"></rect><rect x="130.89" y="346.63" width="55.94" height="55.94" style="fill:#fff;stroke:#636363;stroke-miterlimit:10;stroke-width:0.9836334586143494px"></rect><rect x="156.63" y="346.63" width="4.48" height="55.94" style="fill:#636363;stroke:#636363;stroke-miterlimit:10;stroke-width:0.9836334586143494px"></rect><rect x="156.54" y="346.82" width="4.83" height="55.56" transform="translate(533.55 215.65) rotate(90)" style="fill:#636363;stroke:#636363;stroke-miterlimit:10;stroke-width:0.9836334586143494px"></rect><rect x="223.2" y="347.75" width="30.21" height="68.81" style="fill:#636363;stroke:#636363;stroke-miterlimit:10;stroke-width:0.9836334586143494px"></rect><rect x="228.24" y="352.04" width="20.14" height="53.32" style="fill:#fff"></rect><rect x="287.94" y="349.43" width="5.27" height="2.97" style="fill:#636363"></rect><rect x="295.54" y="349.43" width="5.27" height="2.97" style="fill:#636363"></rect><rect x="287.94" y="354.02" width="5.27" height="3.72" style="fill:#636363"></rect><rect x="295.54" y="354.02" width="5.27" height="3.72" style="fill:#636363"></rect><rect x="307.79" y="349.43" width="5.27" height="2.97" style="fill:#636363"></rect><rect x="315.39" y="349.43" width="5.27" height="2.97" style="fill:#636363"></rect><rect x="307.79" y="354.02" width="5.27" height="3.72" style="fill:#636363"></rect><rect x="315.39" y="354.02" width="5.27" height="3.72" style="fill:#636363"></rect><rect x="327.64" y="349.43" width="5.27" height="2.97" style="fill:#636363"></rect><rect x="335.23" y="349.43" width="5.27" height="2.97" style="fill:#636363"></rect><rect x="327.64" y="354.02" width="5.27" height="3.72" style="fill:#636363"></rect><rect x="335.23" y="354.02" width="5.27" height="3.72" style="fill:#636363"></rect><rect x="347.48" y="349.43" width="5.27" height="2.97" style="fill:#636363"></rect><rect x="355.08" y="349.43" width="5.27" height="2.97" style="fill:#636363"></rect><rect x="347.48" y="354.02" width="5.27" height="3.72" style="fill:#636363"></rect><rect x="355.08" y="354.02" width="5.27" height="3.72" style="fill:#636363"></rect><rect x="367.33" y="349.43" width="5.27" height="2.97" style="fill:#636363"></rect><rect x="374.93" y="349.43" width="5.27" height="2.97" style="fill:#636363"></rect><rect x="367.33" y="354.02" width="5.27" height="3.72" style="fill:#636363"></rect><rect x="374.93" y="354.02" width="5.27" height="3.72" style="fill:#636363"></rect><rect x="387.18" y="349.43" width="5.27" height="2.97" style="fill:#636363"></rect><rect x="394.78" y="349.43" width="5.27" height="2.97" style="fill:#636363"></rect><rect x="387.18" y="354.02" width="5.27" height="3.72" style="fill:#636363"></rect><rect x="394.78" y="354.02" width="5.27" height="3.72" style="fill:#636363"></rect><rect x="407.03" y="349.43" width="5.27" height="2.97" style="fill:#636363"></rect><rect x="414.62" y="349.43" width="5.27" height="2.97" style="fill:#636363"></rect><rect x="407.03" y="354.02" width="5.27" height="3.72" style="fill:#636363"></rect><rect x="414.62" y="354.02" width="5.27" height="3.72" style="fill:#636363"></rect><rect x="426.87" y="349.43" width="5.27" height="2.97" style="fill:#636363"></rect><rect x="434.47" y="349.43" width="5.27" height="2.97" style="fill:#636363"></rect><rect x="426.87" y="354.02" width="5.27" height="3.72" style="fill:#636363"></rect><rect x="434.47" y="354.02" width="5.27" height="3.72" style="fill:#636363"></rect></g><g id="freepik--house-1--inject-17"><rect x="134.2" y="25.39" width="263.8" height="146.56" rx="15.25" style="fill:#fff;stroke:#263238;stroke-miterlimit:10"></rect><path d="M150.16,92s9.47.94,14.26,6.81a18.32,18.32,0,0,1,14.18-6.66A18.4,18.4,0,1,0,150.15,92Z" style="fill:#6053FC"></path><path d="M150.16,92s9.47.94,14.26,6.81a18.32,18.32,0,0,1,14.18-6.66A18.4,18.4,0,1,0,150.15,92Z" style="fill:#fff;opacity:0.2"></path><polygon points="165.05 117.6 164.11 70.25 163.88 118.09 165.05 117.6" style="fill:#828282"></polygon><path d="M164.59,97s3.2-5.76,8.95-7.51c0,0-6.07,1.43-9.11,6.39Z" style="fill:#828282"></path><path d="M164.35,81s3.44-6.08,9.19-7.83c0,0-6.13,1.66-9.17,6.62Z" style="fill:#828282"></path><path d="M164.45,89.06s3.34-6,9.09-7.71c0,0-6.07,1.43-9.11,6.39Z" style="fill:#828282"></path><path d="M164.12,84.86s-3.09-5.75-8.64-7.51c0,0,5.86,1.44,8.79,6.39Z" style="fill:#828282"></path><path d="M164.12,92.85s-3.09-5.75-8.64-7.51c0,0,5.86,1.44,8.79,6.39Z" style="fill:#828282"></path><path d="M356.72,73.3s9.47.94,14.27,6.81a18.31,18.31,0,0,1,14.17-6.66,18.4,18.4,0,1,0-28.44-.13Z" style="fill:#6053FC"></path><path d="M356.72,73.3s9.47.94,14.27,6.81a18.31,18.31,0,0,1,14.17-6.66,18.4,18.4,0,1,0-28.44-.13Z" style="fill:#fff;opacity:0.2"></path><polygon points="371.61 98.91 370.67 51.56 370.44 99.4 371.61 98.91" style="fill:#828282"></polygon><path d="M371.15,78.32s3.2-5.75,9-7.51c0,0-6.07,1.44-9.11,6.39Z" style="fill:#828282"></path><path d="M370.91,62.34s3.44-6.08,9.19-7.83c0,0-6.13,1.66-9.16,6.62Z" style="fill:#828282"></path><path d="M371,70.37s3.34-6,9.09-7.71c0,0-6.07,1.44-9.11,6.39Z" style="fill:#828282"></path><path d="M370.68,66.17s-3.08-5.75-8.64-7.51c0,0,5.86,1.44,8.79,6.39Z" style="fill:#828282"></path><path d="M370.68,74.16s-3.08-5.75-8.64-7.51c0,0,5.86,1.44,8.79,6.4Z" style="fill:#828282"></path><path d="M160.78,70.36s12.92,1.28,19.47,9.29a25,25,0,0,1,19.35-9.09,25.11,25.11,0,1,0-38.82-.17Z" style="fill:#6053FC"></path><path d="M160.78,70.36s12.92,1.28,19.47,9.29a25,25,0,0,1,19.35-9.09,25.11,25.11,0,1,0-38.82-.17Z" style="fill:#fff;opacity:0.4"></path><polygon points="181.1 105.31 179.83 40.7 179.51 105.97 181.1 105.31" style="fill:#828282"></polygon><path d="M180.48,77.21s4.36-7.85,12.21-10.25c0,0-8.28,2-12.43,8.72Z" style="fill:#828282"></path><path d="M180.15,55.4s4.69-8.28,12.54-10.68c0,0-8.36,2.27-12.51,9Z" style="fill:#828282"></path><path d="M180.28,66.37s4.56-8.13,12.41-10.53c0,0-8.28,2-12.43,8.72Z" style="fill:#828282"></path><path d="M179.83,60.64s-4.21-7.85-11.78-10.25c0,0,8,2,12,8.72Z" style="fill:#828282"></path><path d="M179.83,71.54s-4.21-7.85-11.78-10.25c0,0,8,2,12,8.72Z" style="fill:#828282"></path><line x1="147.39" y1="150.47" x2="390.93" y2="150.47" style="fill:none;stroke:#263238;stroke-miterlimit:10;stroke-width:0.9836334586143494px"></line><rect x="162.2" y="115.5" width="99.55" height="34.92" style="fill:#6053FC;stroke:#263238;stroke-miterlimit:10;stroke-width:0.9836334586143494px"></rect><rect x="167.81" y="115.5" width="88.32" height="34.92" style="fill:#fff;stroke:#263238;stroke-miterlimit:10;stroke-width:0.9836334586143494px"></rect><line x1="185.22" y1="121.2" x2="185.22" y2="150.37" style="fill:#fff;stroke:#263238;stroke-miterlimit:10;stroke-width:0.9836334586143494px"></line><line x1="220.06" y1="121.2" x2="220.06" y2="150.37" style="fill:#fff;stroke:#263238;stroke-miterlimit:10;stroke-width:0.9836334586143494px"></line><line x1="233.12" y1="121.2" x2="233.12" y2="150.37" style="fill:#fff;stroke:#263238;stroke-miterlimit:10;stroke-width:0.9836334586143494px"></line><line x1="246.19" y1="121.2" x2="246.19" y2="150.37" style="fill:#fff;stroke:#263238;stroke-miterlimit:10;stroke-width:0.9836334586143494px"></line><line x1="167.8" y1="128" x2="256.24" y2="128" style="fill:#fff;stroke:#263238;stroke-miterlimit:10;stroke-width:0.9836334586143494px"></line><line x1="167.8" y1="135.71" x2="256.24" y2="135.71" style="fill:#fff;stroke:#263238;stroke-miterlimit:10;stroke-width:0.9836334586143494px"></line><line x1="167.8" y1="143.74" x2="256.24" y2="143.74" style="fill:#fff;stroke:#263238;stroke-miterlimit:10;stroke-width:0.9836334586143494px"></line><rect x="202.65" y="115.5" width="6.21" height="34.92" style="fill:#6053FC;stroke:#263238;stroke-miterlimit:10;stroke-width:0.9836334586143494px"></rect><polygon points="152.25 120.68 265.47 120.68 265.47 94.26 175.89 94.26 152.25 120.68" style="fill:#263238;stroke:#263238;stroke-miterlimit:10;stroke-width:0.9836334586143494px"></polygon><polygon points="188.33 93.22 266.05 93.22 266.05 70.33 206.99 70.33 188.33 93.22" style="fill:#fff;stroke:#263238;stroke-miterlimit:10;stroke-width:0.9836334586143494px"></polygon><rect x="188.95" y="80.27" width="32.97" height="18.65" style="fill:#6053FC;stroke:#263238;stroke-miterlimit:10;stroke-width:0.9836334586143494px"></rect><rect x="191.44" y="88.04" width="10.55" height="8.29" style="fill:#fff;stroke:#263238;stroke-miterlimit:10;stroke-width:0.9836334586143494px"></rect><rect x="205.15" y="88.04" width="10.55" height="8.29" style="fill:#fff;stroke:#263238;stroke-miterlimit:10;stroke-width:0.9836334586143494px"></rect><polygon points="180.86 85.97 266.71 85.97 266.71 63.08 201.48 63.08 180.86 85.97" style="fill:#263238;stroke:#263238;stroke-miterlimit:10;stroke-width:0.9836334586143494px"></polygon><rect x="340.12" y="80.27" width="32.97" height="18.65" transform="translate(713.22 179.19) rotate(180)" style="fill:#6053FC;stroke:#263238;stroke-miterlimit:10;stroke-width:0.9836334586143494px"></rect><rect x="360.06" y="88.04" width="10.55" height="8.29" transform="translate(730.67 184.37) rotate(180)" style="fill:#fff;stroke:#263238;stroke-miterlimit:10;stroke-width:0.9836334586143494px"></rect><rect x="346.35" y="88.04" width="10.55" height="8.29" transform="translate(703.24 184.37) rotate(180)" style="fill:#fff;stroke:#263238;stroke-miterlimit:10;stroke-width:0.9836334586143494px"></rect><polygon points="381.18 85.97 295.33 85.97 295.33 63.08 360.57 63.08 381.18 85.97" style="fill:#263238;stroke:#263238;stroke-miterlimit:10;stroke-width:0.9836334586143494px"></polygon><polygon points="264.23 74.57 217.57 93.22 217.57 108.77 263.6 108.77 264.23 74.57" style="fill:#263238;stroke:#263238;stroke-miterlimit:10;stroke-width:0.9836334586143494px"></polygon><polygon points="285.85 66.95 213.8 96.75 211.13 92.28 283.18 62.47 285.85 66.95" style="fill:#525252;stroke:#263238;stroke-miterlimit:10;stroke-width:0.9836334586143494px"></polygon><polygon points="378.02 98.92 277.75 72.92 277.75 150.42 378.02 150.42 378.02 98.92" style="fill:#6053FC;stroke:#263238;stroke-miterlimit:10;stroke-width:0.9836334586143494px"></polygon><polygon points="353.4 150.42 378.02 150.42 378.02 98.92 353.4 92.53 353.4 150.42" style="fill:#263238;stroke:#263238;stroke-miterlimit:10;stroke-width:0.9836334586143494px"></polygon><polygon points="384.66 102.25 323.95 86.36 325.75 81.59 386.46 97.48 384.66 102.25" style="fill:#525252;stroke:#263238;stroke-miterlimit:10;stroke-width:0.9836334586143494px"></polygon><polygon points="261.75 150.42 328.05 150.42 328.05 41.92 261.75 68.42 261.75 150.42" style="fill:#fff;stroke:#263238;stroke-miterlimit:10;stroke-width:0.9836334586143494px"></polygon><polygon points="267.96 113.95 328.05 113.95 328.05 41.92 267.96 65.94 267.96 113.95" style="fill:#263238;stroke:#263238;stroke-miterlimit:10;stroke-width:0.9836334586143494px"></polygon><polygon points="261.75 113.92 298.77 113.92 298.77 78.42 261.75 68.42 261.75 113.92" style="fill:#fff;stroke:#263238;stroke-miterlimit:10;stroke-width:0.9836334586143494px"></polygon><polygon points="285.56 113.92 298.77 113.92 298.77 78.42 285.56 74.85 285.56 113.92" style="fill:#6053FC;stroke:#263238;stroke-miterlimit:10;stroke-width:0.9836334586143494px"></polygon><rect x="285.56" y="115.42" width="13.21" height="34.9" style="fill:#6053FC;stroke:#263238;stroke-miterlimit:10;stroke-width:0.9836334586143494px"></rect><rect x="254.34" y="111.42" width="80.45" height="5" style="fill:#525252;stroke:#263238;stroke-miterlimit:10;stroke-width:0.9836334586143494px"></rect><polygon points="338.11 40.53 266.05 70.33 263.38 65.85 335.44 36.05 338.11 40.53" style="fill:#525252;stroke:#263238;stroke-miterlimit:10;stroke-width:0.9836334586143494px"></polygon><polygon points="304.21 81.25 255.5 67.86 257.3 63.09 306.01 76.48 304.21 81.25" style="fill:#525252;stroke:#263238;stroke-miterlimit:10;stroke-width:0.9836334586143494px"></polygon><rect x="308.97" y="60.92" width="13.81" height="22.85" style="fill:#fff;stroke:#263238;stroke-miterlimit:10;stroke-width:0.9836334586143494px"></rect><rect x="308.97" y="86.57" width="13.81" height="22.85" style="fill:#fff;stroke:#263238;stroke-miterlimit:10;stroke-width:0.9836334586143494px"></rect><rect x="268.75" y="81.42" width="13.21" height="26" style="fill:#fff;stroke:#263238;stroke-miterlimit:10;stroke-width:0.9836334586143494px"></rect><rect x="268.75" y="118.72" width="13.21" height="19.27" style="fill:#fff;stroke:#263238;stroke-miterlimit:10;stroke-width:0.9836334586143494px"></rect><rect x="358.17" y="109.28" width="13.69" height="34.71" style="fill:#fff;stroke:#263238;stroke-miterlimit:10;stroke-width:0.9836334586143494px"></rect><rect x="300.93" y="119.13" width="10.55" height="28.5" style="fill:#fff;stroke:#263238;stroke-miterlimit:10;stroke-width:0.9836334586143494px"></rect><rect x="314.64" y="119.13" width="10.55" height="28.5" style="fill:#263238;stroke:#263238;stroke-miterlimit:10;stroke-width:0.9836334586143494px"></rect><rect x="222.54" y="95.29" width="36.7" height="4.14" style="fill:#fff;stroke:#263238;stroke-miterlimit:10;stroke-width:0.9836334586143494px"></rect><rect x="315.93" y="120.15" width="8.02" height="5.6" style="fill:#fff;stroke:#263238;stroke-miterlimit:10;stroke-width:0.9836334586143494px"></rect><rect x="315.93" y="126.61" width="8.02" height="5.6" style="fill:#fff;stroke:#263238;stroke-miterlimit:10;stroke-width:0.9836334586143494px"></rect><rect x="315.93" y="133.08" width="8.02" height="5.6" style="fill:#fff;stroke:#263238;stroke-miterlimit:10;stroke-width:0.9836334586143494px"></rect><rect x="315.93" y="139.54" width="8.02" height="5.6" style="fill:#fff;stroke:#263238;stroke-miterlimit:10;stroke-width:0.9836334586143494px"></rect><ellipse cx="182.61" cy="182.7" rx="13.28" ry="7.38" style="fill:#fff;stroke:#263238;stroke-miterlimit:10"></ellipse><ellipse cx="172.78" cy="197.95" rx="6.39" ry="3.93" style="fill:#fff;stroke:#263238;stroke-miterlimit:10"></ellipse></g><g id="freepik--Floor--inject-17"><line x1="17.67" y1="417.46" x2="490" y2="417.46" style="fill:none;stroke:#263238;stroke-miterlimit:10;stroke-width:0.9836334586143494px"></line><polyline points="9.2 435 210.53 435 189.87 467.46" style="fill:none;stroke:#263238;stroke-miterlimit:10;stroke-width:0.9836334586143494px"></polyline><polyline points="27.4 421.08 220.65 421.08 213.48 430.82 14.16 430.82" style="fill:#6053FC"></polyline><line x1="467.62" y1="422.11" x2="489.14" y2="443.63" style="fill:none;stroke:#263238;stroke-miterlimit:10;stroke-width:0.9836334586143494px"></line></g><g id="freepik--Character--inject-17"><ellipse cx="98.39" cy="474.84" rx="78.69" ry="9.34" style="fill:#263238"></ellipse><path d="M153.76,232.37s1.68-10.91.4-14-5.9-4.65-8.2-5.43-7.91-.76-9-1.73,1.71-2.27,3.35-2.45,5.84,0,6.78-.22,2.74-4.56,3.55-7.8,2.88-14.6,4.81-16.39,2,1.94,1.72,4-.78,8.37-.78,8.37,1.91-1.09,2.82-.59a16.52,16.52,0,0,1,2.28,1.71,18.92,18.92,0,0,1,4-.08c.69.25,2.83-.83,3.92,1.07s-.89,5.34-2.16,8.09-3.38,9.45-3.44,11.08S166,232.81,166,232.81Z" style="fill:#fff;stroke:#263238;stroke-miterlimit:10;stroke-width:0.9836334586143494px"></path><path d="M109,215.18s7.29-4.46,9.89-5a18.56,18.56,0,0,1,7.93.26c1.37.55,3.67,1.16,2.6-.54a10.18,10.18,0,0,0-4.44-3.78c-1.15-.31-4.38-1-6.13-3s-1.72-6.18-1.2-7.08,5.59-11.11,5.74-13.44-1.94-2.68-2.74-1.1-3.73,7.48-4.49,8.37-3.75.24-4.45.2-3.52.25-3.52.25a3.24,3.24,0,0,0-3.3.49c-1.72,1.3-2.59,4-2.7,5.91s0,11.92,0,11.92l-7.73,11.67,9.08,4.3Z" style="fill:#fff;stroke:#263238;stroke-miterlimit:10;stroke-width:0.9836334586143494px"></path><path d="M93.73,465.17s-1.42,8.26-.85,9.11,19.08,4,23.64,4,13.1,1.14,14-.57,1.42-2.28.28-2.85-10.82-4.84-12.81-6.55a70.73,70.73,0,0,1-5.7-6.26Z" style="fill:#6053FC;stroke:#263238;stroke-miterlimit:10;stroke-width:0.9836334586143494px"></path><path d="M130.47,477.7l.22-.43c-2.7-.11-6.75-.27-11.33-.42-6.59-.23-21-3.73-26.53-5.13a6.53,6.53,0,0,0,0,2.56c.57.86,19.08,4,23.64,4S129.62,479.41,130.47,477.7Z" style="fill:#fff;stroke:#263238;stroke-miterlimit:10;stroke-width:0.9836334586143494px"></path><path d="M39.06,463.18a69.1,69.1,0,0,0,4,6.55c.86.85,3.42,2.27,3.42,3.41v2.57H23.11A57.77,57.77,0,0,1,24.82,464C26.52,456.63,39.06,463.18,39.06,463.18Z" style="fill:#6053FC;stroke:#263238;stroke-miterlimit:10;stroke-width:0.9836334586143494px"></path><path d="M46.46,473.14a1.13,1.13,0,0,0-.19-.57H23.33c-.22,2-.22,3.14-.22,3.14H46.46Z" style="fill:#fff;stroke:#263238;stroke-miterlimit:10;stroke-width:0.9836334586143494px"></path><path d="M38.77,325.34s.29,11.11.29,21.93v47.84s-7.69,20.51-8.83,30.19-5.7,40.44-5.7,40.44A29.07,29.07,0,0,0,31.65,468c2.85.28,6.84-2.28,6.84-2.28s2.27-7.41,3.7-10.54,20.5-55,21.64-59.52S65,378.6,65,378.6l2.28-31.05h3.42L100,397.11s-2.85,17.37-2.85,26.2-3.7,44.42-3.7,44.42,7.4,1.14,11.67.86,8.83-4.27,8.83-4.27v-4.85c0-1.7-.57-2.84-.57-4s11.39-57.24,10.26-62.37S102,335.88,102,335.88l-2.28-6.55Z" style="fill:#263238;stroke:#263238;stroke-miterlimit:10;stroke-width:0.9836334586143494px"></path><path d="M84,220.49l-4.43,8.24,19.44,12s2.8-7.44,4.17-9.38a11.29,11.29,0,0,1,3.1-3s-4.56-8.66-10.32-11.22S84,220.49,84,220.49Z" style="fill:#fff;stroke:#263238;stroke-miterlimit:10;stroke-width:0.9836334586143494px"></path><path d="M112.37,198.12s2.13,5.54,1.56,6.82-1.73,3.31-1.28,4,3.72,1.4,3.57,2.87-2.53,4-2.53,4-.26,10.35-2.68,12.34-4.9,2.42-6.86.52-6.66-6.28-6.66-6.28-5.4,3-9.73,1.8-9.61-7.08-12.43-14a17.52,17.52,0,0,1,4.86-19.53c5.33-4.52,18.75-5.44,24.15-3.81S114.52,192.69,112.37,198.12Z" style="fill:#fff;stroke:#263238;stroke-miterlimit:10;stroke-width:0.9836334586143494px"></path><path d="M112.53,215.54c-3.27-.68-4.78,2.73-4.86,5.76s-1.3,3.5-3.38,1.3-1.92-7.74-1.52-10.37,3.68-4.24,4.81-6.8-4.16-6.7-4.16-6.7c-4.22-3.15-11.63,1.47-16.15,5.32-3.16,2.7-9.55,1.22-13.13.08a16.19,16.19,0,0,0,1.19,6.1c2.82,6.87,8.1,12.79,12.43,14s9.73-1.8,9.73-1.8,4.69,4.39,6.66,6.28,4.45,1.47,6.86-.52c2.12-1.74,2.58-9.9,2.66-11.89A2.12,2.12,0,0,0,112.53,215.54Z" style="fill:#6e6e6e;stroke:#263238;stroke-miterlimit:10;stroke-width:0.9836334586143494px"></path><path d="M99.58,222.29c-.08.73-4.41,1.87-6.33-1.28s-1.44-8.81,1.69-8.95,5.25,5.4,5.25,5.4S99.79,220.09,99.58,222.29Z" style="fill:#fff;stroke:#263238;stroke-miterlimit:10;stroke-width:0.9836334586143494px"></path><path d="M104.34,186.89c-5.4-1.63-18.82-.71-24.15,3.81a17.75,17.75,0,0,0-6,15.21c1.44,3.49,4.24,5.29,9.8,5.39,6.59.12,10.21-7.46,16.2-11.17a16.46,16.46,0,0,1,12.13-2C114.52,192.69,109.74,188.53,104.34,186.89Z" style="fill:#263238;stroke:#263238;stroke-miterlimit:10;stroke-width:0.9836334586143494px"></path><path d="M74.88,207.23a20.9,20.9,0,0,0-6.46-6.71c-4.19-2.63-5.12,0-5.35,4s1.23,6.42,4.12,5.66A63.38,63.38,0,0,0,74.88,207.23Z" style="fill:#263238;stroke:#263238;stroke-miterlimit:10;stroke-width:0.9836334586143494px"></path><path d="M74.88,207.23s-6.06,4.45-8,7.67" style="fill:none;stroke:#263238;stroke-miterlimit:10;stroke-width:0.9836334586143494px"></path><path d="M68.86,230s-9.91,2-14.71,6.28S48.24,249,48,252.68s-9.28,44.85-10.64,53.38-5.42,20.3-5.42,20.3,16.85,9.27,35.64,11.25,44-3.83,44-3.83-8-26.4-7.63-39a73.39,73.39,0,0,1,5.39-24.06s43.44,5,50.23,2.95,8.27-8.59,7.74-12.76-.11-26.4-.11-26.4-9-2.58-12-1.81l-3.08.77L145.51,254S124,245.59,115.4,242.8a120.54,120.54,0,0,0-15.71-4Z" style="fill:#6053FC;stroke:#263238;stroke-miterlimit:10;stroke-width:0.9836334586143494px"></path><polygon points="109.34 270.7 92.61 268.94 103.54 272.28 95.06 283.79 109.34 270.7" style="fill:#263238;stroke:#263238;stroke-miterlimit:10;stroke-width:0.9836334586143494px"></polygon><path d="M103.9,287.76s-7.67,1.08-11.41.69" style="fill:none;stroke:#263238;stroke-miterlimit:10;stroke-width:0.9836334586143494px"></path><line x1="92.1" y1="292.19" x2="93.26" y2="329.15" style="fill:none;stroke:#263238;stroke-miterlimit:10;stroke-width:0.9836334586143494px"></line><line x1="98.77" y1="291.63" x2="102.21" y2="327.88" style="fill:none;stroke:#263238;stroke-miterlimit:10;stroke-width:0.9836334586143494px"></line><path d="M107.63,327.19s-20.93,4.42-38.09,2.93S36.49,321,36.49,321" style="fill:none;stroke:#263238;stroke-miterlimit:10;stroke-width:0.9836334586143494px"></path><line x1="145.51" y1="254.04" x2="155.81" y2="257.65" style="fill:none;stroke:#263238;stroke-miterlimit:10;stroke-width:0.9836334586143494px"></line><path d="M104.31,239.45s-4.87-5.82-9.37-7.36-16.66-3.86-21.26-4.7a5.66,5.66,0,0,0-6.3,3.16,54.43,54.43,0,0,0,15.9,6.11A191.2,191.2,0,0,0,104.31,239.45Z" style="fill:#dbdbdb;stroke:#263238;stroke-miterlimit:10;stroke-width:0.9836334586143494px"></path><path d="M149.66,230.52s-1.81,7.61-1.15,8.35,1.31,1.7,1.83.79,3-2.87,8.31-2.59a12.52,12.52,0,0,1,8.43,4,1.11,1.11,0,0,0,1.7-1.08c.09-1.86.21-8.39-.2-9.58s-5.94-2.42-11.31-2.47S150.41,229.63,149.66,230.52Z" style="fill:#dbdbdb;stroke:#263238;stroke-miterlimit:10;stroke-width:0.9836334586143494px"></path></g></svg>