<svg xmlns="http://www.w3.org/2000/svg" version="1.1" xmlns:xlink="http://www.w3.org/1999/xlink" xmlns:svgjs="http://svgjs.dev/svgjs" viewBox="0 0 1422 800"><defs><linearGradient x1="50%" y1="0%" x2="50%" y2="100%" id="ssscribble-grad"><stop stop-color="hsl(206, 75%, 49%)" stop-opacity="1" offset="0%"></stop><stop stop-color="hsl(331, 90%, 56%)" stop-opacity="1" offset="100%"></stop></linearGradient></defs><g fill="none" stroke-width="1.75" stroke="url(#ssscribble-grad)" stroke-linecap="round"><path d="M1921.77 322.12C1959.12 351.46 1881.85 368.83 1715.31 374.94 1505.35 381.43 1309.68 377.58 1177.82 365.2 1139.92 355.45 1200.87 340.7 1338.72 325.03 1520.39 318.33 1695.75 318.26 1823.71 331.16 1879.97 362.46 1850.28 415.06 1744.68 493.36 1583.05 592.89 1398.53 716.29 1223.98 858.31 1082.57 1001.91 996.41 1142.18 970.88 1262.83 1004.43 1345.19 1083.54 1380.59 1189.33 1358.97 1310.52 1285.07 1422.28 1164.64 1510.63 1016.29 1572.56 874.82 1597.06 762.87 1585.92 710.12 1543.02 736.73 1473.58 843.56 1386.7 1017.01 1284.02 1220.15 1177.48 1413.1 1073.81 1548.95 968.89 1592.27 873.69 1530.73 790.02 1376.97 710.42 1177.5 642.51 984.94 585.19 859.41 531.13 845.29 485.22 949.79 445.93 1146.57 407.65 1374.83 374.09 1563.61 344.75 1648.62 315.41 1600.26 290.99 1435.68 272.11 1211.83 254.25 998.71 243.85 862.86 242.58 840.84 244.57 935.77 258.12 1112.51 284.49 1314.65 314.93 1488.32 358.01 1580.79 412.1 1570.64 464.92 1462.48 521.87 1284.54 576.38 1081.14 615.09 892.82 637.75 760.79 635.44 704.83 601.35 729.28 533.18 820.27 429.27 951.2 298.95 1100.31 146.89 1232.01 -12.74 1324.62 -156.98 1369.97 -272.71 1358.67 -340.91 1297.52 -350.03 1193.96 -296.53 1064.19 -185.68 924.46 -41.67 780.18 114.41 649.36 249.86 538.96 329.29 446.69 335.07 379.42 257.3 334.06 107.84 306.99 -86.61 294.87 -284.84 291.69 -439.25 298.38 -514.2 306.44 -487.63 311.47 -367.09 319.83 -180.06 321.1 24.09 313.13 184.83 305.75 259.12 287.82 221.77 258.49 80.5 229.15 -119.92 189.1 -321.15 139.33 -471.35 90.15 -527.14 32.57 -477.03 -31.11 -335.67 -91.48 -140.19 -153.89 60.47 -213.81 222.76 -263.87 310.54 -303.87 311.05 -327.64 228.16 -333.14 87.87 -315.46 -74.55 -271.37 -229.52 -209.16 -340.1 -125.11 -387.55 -26.05 -366.97 68.45 -281.72 154.56 -149.35 216.15 13.51 235.34 180.06 206.36 329.59 122.57 451.58 -8.48 532.12 -176.79 570.17 -360.55 567.43 -526.13 531.64 -649.8 474.05 -704.82 397.52 -679.43 318.52 -575.84 245.96 -413.7 176.89 -236.47 124.27 -82.44 89.57 4.23 66.35 -7.1 60.39 -118.64 68.61 -308.86 85.97 -527.55 112.61 -718.32 144.76 -824.6 181.24 -813.93 218.98 -686.75 255.35 -479.45 292.79 -261.4 326.73 -99.76 356.07 -51.36 385.41 -136.33 409.46 -322.12 429.17 -544.57 449.95 -735.58 468.52 -831.48 487.37 -806.06 510.56 -669.23 538.26 -462.67 574.13 -246.64 619.14 -76.31 677.2 4.36 751.26 -17.42 836.8 -131.76 939.01 -300.79 1056.25 -477.75 1176.98 -625.05 1302.75 -703.47 1424.51 -699.54 1527.32 -616.26 1606.79 -471.65 1651.53 -295.54 1655.47 -112.55 1615.22 44.5 1531.71 156.87 1420.63 216.96 1290.7 221.86 1162.47 181.49 1064.74 102.84 1012.14 6.24 1022.1 -92.12 1100.08 -188.93 1239.09 -265.56 1420.21 -316.93 1608.82 -347.06 1773.03 -350.08 1877.44 -330.56 1898.46 -292.61 1829.8 -240.44 1684.08 -180.51 1499.97 -111.61 1318.5 -42.51 1188.45 22.56 1149.63 90.28 1214.02 150.44 1370.01 201.1 1577.03 252.15 1780.44 292.77 1921.74 322.11Q1921.77 322.12 1921.77 322.12" opacity="0.90"></path><path d="M1887.77 92.74C1925.87 120.91 1857.84 141.56 1704.78 155.71 1505.75 170.87 1311.51 181.62 1167.9 190.55 1105.5 203.9 1135.04 219.98 1243.36 242.95 1405.94 276 1580.26 321.92 1727.5 384.72 1821.61 461.66 1840.67 557.72 1784.58 672.3 1664.19 794.21 1502.73 925.04 1328.58 1055.52 1163.85 1168.98 1034.66 1260.4 954.03 1316.64 926.62 1329.3 950.18 1294.34 1013.29 1211.75 1108.19 1097.53 1214.38 961.68 1316.67 826.84 1410.81 724.51 1480.47 671.33 1521.54 686.04 1536.65 773.21 1522.72 923.66 1484.99 1114.35 1426.51 1305.71 1353.88 1462.33 1273.91 1547.25 1185 1539.82 1097.09 1439.45 1014.21 1267.96 930.03 1073.82 854.23 904.45 788.01 809.97 722.68 822.83 666.91 942.46 620.67 1139.92 574.89 1358.46 537.86 1535.36 509.69 1614.62 481.52 1570.7 462.89 1418.03 453.81 1205.78 446.04 921.44 484.02 937.52 528.91 1202.44 560.68 1386.84 598.57 1512.91 638.66 1551.83 669.82 1497.34 694.86 1362.55 707.08 1180.34 698.57 984.92 667.59 817.55 609.08 705.61 524.6 662.49 413.01 689.73 278.57 772.77 135.98 896.97 -8.88 1032.35 -140.69 1155.12 -240.72 1253.9 -299.44 1309.38 -305.28 1318.42 -257.91 1283.69 -160.09 1210.25 -24.69 1109.99 120.12 988.07 254.29 860.37 349.56 737.01 380.52 616.92 338.51 512.56 223.76 425.86 55.86 351.56 -136.78 294.34 -315.26 250.99 -439.47 217.51 -482.46 192.58 -430.93 172.23 -298.19 156.5 -112.24 140.77 81.21 122.37 228.7 105.08 293.87 82.87 255.77 54.71 121.72 26.55 -68.73 -6.9 -264.17 -44.48 -418.35 -80.94 -489.86 -119.26 -464.12 -156.66 -349.31 -189.42 -173.45 -216.68 21.98 -234.31 197.59 -242.07 316.17 -234.88 358.71 -209.39 321.01 -171.51 217.5 -114.76 74.76 -40.91 -82.64 36.18 -218.96 118.98 -310.86 197.5 -347.72 254.36 -321.78 285.88 -240.98 280.32 -115.82 231 33.81 136.85 188.25 1.17 336.41 -158.51 459.68 -329.05 550.46 -486.51 607.51 -602.82 629.2 -661.44 621.53 -647.67 586.98 -565.07 536.52 -425.01 479.06 -254.72 413.14 -97.62 352.26 14.22 301.04 48.09 253.17 -11.45 218.94 -155.84 198.3 -356.12 182.07 -643.67 206.98 -692.44 237.94 -417.85 261.22 -211.17 287.33 -61.32 315.49 -17.36 343.66 -96.59 373.21 -270.61 404.8 -483.58 437.41 -675.48 474.05 -786.86 516.54 -788.87 562.66 -683.55 617.68 -500.74 683.59 -290.7 755.33 -103.3 839.58 15.41 936.25 43.51 1036.29 -20.74 1144.77 -154.41 1256.93 -320.64 1360.65 -486.21 1456.01 -609.37 1533.98 -667.22 1585.07 -652.61 1605.32 -568.08 1588.58 -432.49 1538.11 -264.39 1453.53 -93.39 1342.29 57.74 1224.77 177.25 1110.28 250.9 1018.36 278.54 970.81 262.6 976.21 213.11 1042.39 143.06 1163.61 55.99 1327.21 -29.93 1509.75 -105.59 1677.62 -173.93 1804.09 -222.39 1862.46 -250.52 1840.58 -264.5 1740.35 -260.4 1580.66 -242.35 1401.11 -214.22 1238.69 -178.12 1134.74 -138.34 1119.84 -94.16 1199.61 -50.85 1359.33 -11.15 1560.34 29.55 1753.66 64.56 1887.74 92.73Q1887.77 92.74 1887.77 92.74" opacity="0.46"></path><path d="M1853.77 0.04C1892.43 27.03 1833.21 53.69 1693.49 80.82 1506.25 109.08 1315.65 140.01 1163.5 175.8 1079.74 215.73 1079.38 264.14 1156.62 323.6 1294.75 390.22 1459.31 470.41 1615.48 564.75 1737.69 664.55 1799.42 775.06 1792.65 891.72 1720.43 1001.51 1595.73 1104.57 1440.43 1191.02 1273.25 1249.7 1120.14 1276.25 998.39 1263.46 916.61 1213.8 881.98 1127.08 890.81 1011.28 939.33 888.26 1014.34 768.92 1102.66 674.76 1200.13 629.02 1289.46 640.96 1362.75 717.75 1421.6 850.96 1456.5 1024.92 1468.24 1212.01 1460.94 1375.06 1434.44 1485.68 1393.73 1518.01 1340.37 1464.93 1279.95 1334.84 1217.16 1155.34 1148.94 973.84 1083.33 831.28 1023.06 767.84 961.36 805.41 907.05 937.41 861.39 1133.6 815.56 1341.78 778.82 1506.92 751.83 1580.62 724.83 1540.94 708.22 1399.94 701.48 1199.76 694.57 993.69 697.06 837.05 707.86 767.16 717.23 798.43 732.83 917.48 752.08 1089.29 765.89 1274.64 778.37 1424.2 784.96 1505.16 778.89 1503.48 759.77 1419.12 722.74 1272.99 666.69 1091.03 588.76 909.82 488.31 759.38 373.41 658.25 243.9 619.96 107.82 641.67 -19.12 716.67 -131.19 824.84 -215.09 945.23 -259.3 1066.57 -258.35 1165.56 -208.46 1231.85 -118.57 1264.46 4.47 1257.72 143.54 1216.95 270.74 1146.39 369.28 1055.18 417.42 953.09 400.12 840.59 316.38 730.57 174.39 628.5 -1.56 529.39 -183.69 443.04 -337.05 369.75 -429.52 302.55 -442.05 246.89 -368.71 200.71 -226.98 158.41 -44.32 122.37 137.57 90.63 271.95 59.99 328.43 31.53 289.77 4.53 162.83 -22.45 -17.61 -47.33 -206.52 -69.27 -363 -90.11 -448.09 -105.88 -445.16 -114.48 -357.17 -119.22 -203.99 -113.57 -19.65 -95.34 161.4 -71.03 303.06 -32.62 382.49 19.7 389.51 74.98 328.4 139.39 216.82 207.57 73.11 265.34 -71.24 313.53 -191.82 342.5 -275.12 341.68 -305.27 308.25 -281.59 237.03 -208.67 132.13 -97.48 -3.91 36.33 -160.63 183.09 -316.4 324.02 -458.27 447.77 -565.16 551.27 -618.76 625.62 -610.54 671.28 -537.53 690.16 -415.2 685.92 -260.15 665.24 -102.27 628.38 19.79 585.58 82.17 542.72 64.08 495.31 -36.64 454.48 -203.75 422.73 -404.33 382.1 -657.36 356.34 -631.28 368.46 -356.22 380.15 -161.38 399.6 -23.08 426.59 16.63 453.59 -57.02 487.47 -219.41 528.36 -422.25 569.88 -613.11 619.55 -737.2 677.99 -764.38 738.19 -690.55 808.17 -535.11 887.78 -338.38 968.51 -143.64 1057.27 4.03 1151.47 76.91 1241.1 64.39 1329.52 -24.21 1410.72 -163.18 1475.73 -326.2 1523 -474.01 1545.73 -579.12 1541.69 -627.81 1507.52 -609.7 1442.65 -532.09 1357.52 -406.07 1253.66 -253.03 1142.28 -94.63 1043.84 56.54 966.32 180.33 925.26 268.62 933.44 320.03 993.64 333.65 1105.04 316.58 1253.71 271.73 1424.23 211.7 1592.02 146.23 1727.69 73.89 1810.8 9 1823.59 -44.01 1763.97 -91.58 1639.89 -123.83 1474.07 -141.48 1304.96 -151.97 1164.66 -150.37 1087.06 -139.39 1094.53 -124.28 1187.53 -103.4 1349.34 -79.09 1543.58 -53.64 1726.77 -26.95 1853.74 0.03Q1853.77 0.04 1853.77 0.04" opacity="0.28"></path><path d="M1819.77 85.26C1858.8 111.08 1807.95 143.16 1681.36 181.72 1506.6 221.06 1321.68 268.29 1164.14 324.31 1062.48 382.59 1034.54 451.09 1080.42 530.03 1190.19 610.94 1337.45 701.03 1492.47 797.84 1631.88 890.83 1727.4 983.62 1765.48 1069.85 1743.2 1139.54 1663.99 1191.08 1542.34 1216.97 1392.35 1214.21 1236.4 1179.38 1092.76 1111.79 971.77 1022.43 886.87 913.55 841.08 797.59 834.14 696.53 861.16 619.55 913.13 583.22 986.75 600.05 1067.69 672.18 1146.79 796.69 1224.8 956.14 1289.07 1132.11 1336.6 1296.72 1371.95 1419.02 1388.95 1478.77 1389.74 1461.07 1378.67 1370.17 1355.53 1220.49 1324.12 1042.37 1285.61 879.76 1243.58 766.44 1201.18 733.18 1155.89 792.81 1113.31 934.39 1075.36 1127.51 1036.77 1324.74 1004.12 1478.31 978.31 1546.62 952.49 1510.99 934.1 1381.36 922.41 1193.63 910.07 993.64 903.09 830.92 899.68 741.54 893.39 743.11 887.59 830.55 879.26 978.49 863.82 1155.7 841.11 1318.03 807.44 1431.69 761.9 1477.93 701.27 1446.22 623.53 1346.33 533.6 1195.34 428.18 1021.9 310.37 854.44 191.48 712.89 72.11 618.23 -38.45 577.2 -127.36 590.14 -189.84 648.36 -216.73 737.08 -204.79 847.57 -152.11 958.19 -61.61 1055.29 51.53 1135.84 178.74 1186.6 301.84 1206.34 396.61 1198.19 450.8 1162.72 450.05 1106.58 388.94 1031.95 272.37 947.55 114.04 859.97 -59.9 766.36 -223.97 677.15 -348.31 595.5 -408.76 514.42 -393.14 443.06 -301.46 381.81 -153.88 322.23 23.44 271.93 193.09 230.36 314.56 189.44 362.8 156.1 323.77 130.28 203.82 104.46 33.41 86.77 -148.29 77.4 -305.47 68.67 -401.94 69.42 -419.94 80.3 -358.37 92.86 -230.03 116.38 -61.87 150.61 117.12 185.42 273.52 228.77 382.83 277.64 431.05 320.47 414.2 361.25 341.58 393.49 225.1 407.24 89.81 401.56 -41.58 369.93 -155.21 310.41 -230.66 221.23 -260.61 103.74 -244.85 -30.29 -185.28 -176.37 -91.85 -320.69 28.24 -443.27 159.85 -533.73 290.87 -577.17 417.47 -566.64 526.92 -500.74 615.1 -386.09 683.42 -245.52 728.57 -97.09 753.73 30.87 760.8 107.74 754.42 118.43 739.86 53.28 715.49 -79.28 689.83 -258.41 666.7 -450.19 640.33 -612.71 620.25 -712.5 608.21 -724.06 595.77 -644.68 592.4 -489.58 598.67 -294.7 605.02 -112.07 620.95 14.96 646.76 50.63 672.58 -17.64 707.68 -168.57 751.62 -360.69 795.63 -548.72 848.55 -682.72 909.69 -732.41 970.41 -689.21 1038.32 -563.58 1111.54 -386.4 1181.51 -193.71 1253.03 -27.21 1322.15 82.63 1381.46 119.26 1431.47 80.56 1466.8 -18.69 1484.05 -160.27 1480.07 -311.22 1451.55 -443.79 1403.16 -541.42 1332.16 -584.81 1242.49 -571.15 1148.42 -504.34 1052.26 -395.14 965.99 -260.23 906.4 -110.43 879.04 33.89 893.76 160.2 954.18 264.73 1058.37 337.99 1198.88 380.55 1357.16 394.46 1517.47 384.07 1656.99 356.78 1752.66 312.94 1790.56 263.78 1761.28 215.53 1670.91 163.47 1531.34 119.23 1366.91 85.17 1155.3 42.73 1125.62 16.65 1339.92 28.76 1526.73 40.49 1699.77 59.43 1819.74 85.25Q1819.77 85.26 1819.77 85.26" opacity="0.73"></path><path d="M1785.77 310.49C1824.98 335.14 1782.02 369.26 1668.28 412.45 1506.55 455.8 1329.13 508.39 1169.26 569.65 1053.38 630.69 1000.84 699.45 1016.29 774.08 1095.38 845.59 1219.3 919.07 1363.97 990.38 1509.4 1051.52 1627.93 1103.07 1702.86 1139.27 1727.27 1156.26 1696.67 1150.82 1618.34 1119.48 1501.4 1067.16 1362.43 991.35 1218.04 896.64 1078.29 798.36 959.4 699.68 869.11 613.71 809.6 557.85 783.57 538.17 786.95 564.25 817.63 637.91 866.73 755.76 926.17 907.53 995.94 1071.35 1063.83 1229.23 1124.6 1356.52 1182.34 1430.7 1227.38 1439.66 1258.93 1378.26 1282.94 1259.3 1294 1100.53 1294.01 932.36 1287.88 793.6 1273.79 710.75 1254.19 706.01 1231.49 784.76 1206.16 933.12 1180.03 1121.48 1153.08 1307.31 1126.91 1449.51 1102.27 1512.62 1077.62 1480.83 1055.08 1362.27 1034.02 1187.25 1012.15 994.83 990.17 828.81 966.39 723.26 939.52 697.53 907.95 753.15 869.36 873.25 824.64 1034.37 769.8 1198.85 703.08 1334.39 628.82 1420.25 542.14 1438.55 443.93 1389.6 342.69 1282.2 235.52 1135.47 127.76 973.14 30.34 813.52 -55.44 680.25 -121.38 586.4 -160.03 537.42 -167.84 535.18 -140.63 572.46 -82.64 644.13 5.48 734.52 116.13 830.46 231.42 928.39 342.95 1012.11 434.22 1075.56 486.89 1120.92 493.61 1141.18 447.21 1138.61 350.3 1116.87 211.69 1077.96 48.19 1027.3 -114.54 965.26 -254.5 898.77 -347.5 832.21 -376.86 761.41 -336.08 694.96 -229.72 635.15 -79.36 574.51 90.8 521.99 247.66 478.5 356.52 435 396.98 400.66 357.77 376.01 244.7 351.36 84.29 336.99 -89.6 332.48 -298.76 330.57 -301.02 371.06 -101.98 407.54 68.07 429.39 230.71 452.11 361.63 471.44 444.92 479.39 470.51 476.66 440.53 457.94 360.96 420.05 249.41 360.51 124.82 277.18 -0.49 175.75 -104.98 55.36 -177.23 -77.83 -213.83 -209.03 -208.98 -333.27 -166.61 -437.25 -91.15 -506.85 8.22 -535.38 121.12 -515.52 243.82 -450.79 363.39 -344.97 473.07 -211 573.69 -74.34 657.12 48.51 722.93 133.93 774.19 160.92 809.55 122.56 832.26 18.65 843.84 -134.93 847.9 -315.46 848.17 -490.49 842.65 -624.51 837.7 -691.93 835.93 -675.74 832.08 -579.72 833.8 -420.97 842.49 -233.43 850.77 -63.27 866.92 52.8 891.56 84.63 916.2 21.55 948.76 -118.12 988.49 -299.08 1027.79 -482.57 1073.38 -623.7 1123.71 -692.96 1171.96 -678.73 1222.56 -584.13 1272.8 -431.47 1317.25 -249.39 1356.96 -74.57 1388.11 62.46 1408.11 141.93 1414.41 153.08 1403.62 100.88 1378.29 -4.41 1334.15 -138.41 1271.52 -276.57 1199.82 -402.68 1116.93 -493.09 1029.5 -537.66 951.85 -534.64 886.31 -484.2 843.14 -396.04 833.06 -277.77 858.96 -145.24 924.66 -11.7 1026 118.26 1157.93 230.76 1308.9 321.06 1459.16 390.39 1594.6 435.11 1696.16 458.59 1748.14 462.87 1742.65 452.96 1677.44 434.53 1564.6 405.93 1418.01 376.23 1261.85 349.43 1127.84 319.51 1037.35 296.41 1010.67 281.85 1056.91 267.07 1169.74 261.78 1330.95 266.44 1509.73 271.25 1672.65 285.84 1785.74 310.48Q1785.77 310.49 1785.77 310.49" opacity="0.43"></path><path d="M1751.77 575.54C1790.97 599.01 1755.43 630.7 1654.19 669.85 1505.87 708.56 1337.56 753.8 1178.27 803.98 1051.92 851.96 978.31 902.35 965.31 952.27 1012.95 996.06 1109.2 1034.72 1235.74 1064.23 1376.54 1081.93 1506.41 1085.09 1607.68 1070.25 1671.3 1040.29 1686.96 990.91 1655.69 922.81 1582.08 846.23 1475.92 759.46 1350.3 670.04 1213.68 593.02 1081.81 531.37 964.74 495.82 865.97 496.43 793.63 535.84 748.29 616.5 728.84 731.6 732.75 874.34 754.56 1030.47 793.53 1177.97 840.81 1301.58 890.69 1382.1 945.98 1406.26 996.63 1369.01 1039.74 1273.11 1081.23 1136.98 1112.67 979.27 1133.85 828.42 1151.72 717.06 1160.09 664.76 1160.02 686.22 1157.76 780.93 1148.83 933.35 1134.32 1115.4 1119.16 1289.46 1099.64 1420.53 1076.17 1478.62 1052.7 1450.47 1025.82 1342.65 995.27 1180.51 964.06 997 927.94 830.35 885.93 712.03 841.73 661.98 789.88 686.69 729.43 776.49 665.66 915.04 592.53 1071.83 510.37 1217.82 426.58 1332.61 336.27 1394.03 242.43 1395.21 154.01 1338.1 69.32 1232.12 -5.82 1094.56 -63.8 940.09 -102.66 790.85 -116.79 662.74 -105.03 563.9 -64.92 504.07 3.07 483.2 89.38 499.68 191.95 545.9 300.85 612.01 398.76 694.95 478.79 780.11 527.96 859.25 534.79 933.69 496.38 992.04 411.83 1032.46 289.62 1059.42 140.62 1068.32 -17.38 1061.9 -161.12 1043.76 -272.65 1014.96 -333.54 979.39 -333.79 937.21 -271.38 892.89 -154.09 849.45 -3.85 803.44 157.53 761.1 301.21 724.2 397.81 686.75 430.97 655.88 391.77 632.41 285.47 608.93 135.02 593.41 -30.52 585.14 -184.59 576.32 -297.11 573.6 -350.25 575.34 -337.95 574.53 -262.18 575.36 -137.57 574.96 17.59 567.95 178.34 555.06 321.96 532.53 432.28 498.28 495.31 449.72 507.58 384.23 470.13 305.27 393.12 209.51 290.56 98.9 172.06 -16.41 57.38 -136.51 -40.45 -253.03 -116.55 -352.73 -159.75 -431.2 -168.74 -478.44 -145.59 -488.36 -92.73 -457.83 -17.25 -386.72 77.58 -286.33 181.81 -163.23 288.04 -33.19 396.46 79.92 497.14 163.17 586.89 199.35 669.14 177.25 737.95 96.72 794.05 -35.25 841.34 -198.44 878.18 -370.51 907.03 -522.32 929.9 -625.38 948.27 -661.32 964.57 -620.35 978.12 -511.11 992.28 -351.38 1008.67 -172.52 1024.37 -15.02 1043.63 90.44 1067.1 118.63 1090.58 60.57 1117.7 -68.09 1147.71 -237.5 1177.05 -414.92 1207.93 -560.45 1238.65 -646.12 1266.63 -658.55 1291.73 -595.06 1311.46 -470.46 1325.2 -306.37 1330.05 -133.38 1323.44 19.96 1308.03 133.08 1278.88 189.47 1235.18 186.25 1183.97 126.68 1120.71 25.81 1048.47 -97.24 978.42 -228.93 909.12 -345.53 847.85 -432.92 805.95 -485.88 785.32 -496 792.91 -465.84 832.66 -399.53 905.15 -305.65 1008.96 -195.05 1134.51 -72.04 1275.32 49.65 1418.26 162.41 1545.27 266.69 1645.04 353.49 1703.43 421.99 1712.12 475.37 1668.23 511.87 1575.12 534.85 1448.71 546.02 1303.25 549.04 1161.32 547.84 1049.94 540.51 985.37 533.6 982.1 529.88 1044.28 523.97 1163.69 523.78 1322.39 530.79 1492.58 537.36 1645.42 552.06 1751.74 575.53Q1751.77 575.54 1751.77 575.54" opacity="0.37"></path><path d="M1717.77 762.5C1756.77 784.79 1728.16 810.56 1638.99 839.01 1504.3 866.74 1346.5 895.71 1190.48 924.15 1012.04 960.73 978.13 997.95 1113.59 986.28 1240.39 965.53 1370.1 930.65 1485.79 881.13 1577.95 824.78 1632.72 757.14 1646.33 681.98 1619.81 611.07 1556.28 543.51 1464.42 487.16 1350.47 453.13 1227.15 443.65 1104.65 465.25 986.75 520.06 884.23 607.96 801.11 725.53 736.97 860.55 694.89 1005.03 672.65 1143.89 668.8 1258.4 679.43 1337.25 699.93 1367.67 731.22 1345.12 765.69 1270.03 799.59 1150.79 837.21 1008.6 870.06 861.17 896.28 733.49 922.59 651.58 940.93 628.8 950.87 673.56 960.11 780.92 961.21 934.79 954.28 1109.14 947.06 1271.16 932.33 1391.36 910.03 1444.62 887.73 1419.91 858.39 1322.44 822.18 1173.27 785.68 999.84 741.78 835.07 690.49 707.45 638.49 636.54 578.85 632.29 512.08 690.85 445.41 802.06 372.95 942.61 296.69 1087.92 224.15 1219.56 151.99 1313.93 84.09 1359.44 26.98 1353.06 -19.19 1295.58 -49.71 1197.33 -61.83 1068.48 -52.95 926.64 -20.71 787.34 30.49 659.26 102.39 556.39 191.07 484.11 284.34 443.43 379.83 434.74 467.45 452.86 532.98 495.67 571.68 553.46 574.98 618.43 538.15 691.05 461.78 759.52 349.73 819.32 214.14 874.72 66.26 916.91 -76.87 945.61 -235.93 970.7 -239.77 957.55 -75.26 930.17 72.15 907.38 223.38 882.65 353.66 857.74 438.42 832.07 464.77 807.72 425.77 785.42 326.12 763.12 185.57 743.4 28.82 725.64 -121.61 707.12 -238.85 689.05 -305.84 669.79 -315.35 647.57 -265.59 621.36 -166.2 588.83 -30.72 550.28 120.75 502.23 268.1 442.73 396.15 375.39 489.03 295.53 539.35 203.51 544.56 107.1 508.07 3.09 438.71 -103.89 342.91 -203.23 236.6 -294.22 132.21 -368.94 34.77 -418.97 -42.01 -440.91 -93.09 -429.47 -118.89 -386.43 -115.85 -311.4 -87.19 -209.65 -35.62 -96.68 33.65 20.32 114.41 125.96 206 201 299.76 236.89 391.08 223.39 482.81 158.01 566.97 45.48 642.04 -102.49 712.94 -264.15 774.1 -419.22 826.18 -543.02 874.09 -614.19 914.64 -620.6 949.23 -558.32 981.48 -439.33 1009.83 -281.13 1035.41 -112.11 1060.35 32.65 1083.78 127.88 1106.08 152.63 1128.37 99.4 1149.02 -18.52 1167.52 -176.11 1185.37 -346.06 1199.82 -493.38 1209.62 -592.16 1217.09 -628.33 1217.85 -594.93 1210.4 -500.44 1198.78 -360.19 1177.22 -198.23 1144.97 -39.7 1108.55 95.89 1062.07 189.16 1006.96 231.61 952.25 221.08 894.04 163.85 836.81 72.56 790.42 -43.07 754.32 -162.72 734.64 -271.42 737.88 -362.66 765.45 -422.73 820.47 -448.32 900.76 -440.7 1005.38 -400.6 1129.14 -334.67 1259.87 -246.41 1391.01 -145.66 1510.04 -40.38 1602.61 69.13 1660.72 172.32 1675.43 265.28 1645 351.41 1570.31 423.97 1458.61 483.37 1327.61 533.84 1190.65 573.14 1067.74 603.72 980.92 628.05 941.79 647.22 959.88 663.76 1035.46 677.38 1159.25 691.2 1314.09 706.9 1475.24 721.88 1618.06 740.19 1717.74 762.49Q1717.77 762.5 1717.77 762.5" opacity="0.87"></path><path d="M1683.77 788.19C1722.38 809.32 1700.19 828.04 1622.61 843.9 1501.62 859.09 1355.46 870.15 1205.16 875.85 1069.04 879.2 965.31 875.2 904.95 862.43 893.26 845.68 928.63 818.73 1002.95 781.12 1108.22 740.1 1227.36 689.7 1345.42 631.9 1453.63 576.22 1536.76 519.13 1587.94 465.68 1605.79 425.55 1587.79 398.75 1538.18 391.4 1460.95 408.68 1364.3 452.07 1256.87 523.49 1142.04 618.46 1030.53 735.15 928.19 866.42 834.99 998.21 757.74 1123.04 697.2 1227.57 651.37 1298.48 621.34 1328.63 604.48 1311.62 599.7 1250.12 603.59 1148.22 612.74 1017.63 628.79 879.92 645.77 750.51 661.1 650.11 679.26 598.23 693.14 602.96 701.29 667.63 710.19 784.3 712.31 937.12 706.95 1102.56 701.68 1252.36 688.68 1362 667.55 1410.62 646.43 1389.14 617.68 1301.64 581.8 1165.4 546.02 1003.02 503.36 842.45 454.61 708.97 406.62 621.02 353.61 590.65 297.13 618.5 243.47 699.45 188.97 817 136.3 951.56 90.54 1087.76 50.96 1202.85 21.05 1282.91 3.23 1321.89 -0.41 1313.86 12.85 1262.73 40.83 1174.27 86.64 1059.88 149.61 932.42 221.73 799.51 304.23 675.74 391.37 569.53 471.12 483.38 541.4 423.71 593.69 390.06 618.35 381.13 612.83 393.54 572.98 421.81 499.81 465.51 396.2 515.83 269.15 567.51 132.25 623.59 -4.09 674.46 -124.85 717.57 -214.66 758.78 -263.78 790.14 -264.01 811.56 -215.57 829.72 -121.93 838.8 6.03 839.85 148.17 838.79 288.12 831.42 404.93 818.76 478.33 805.48 498.38 788.09 459.77 766.97 366.64 745.85 235.89 721.48 88.34 693.62 -57.22 665.13 -177.05 631.97 -255.26 593.19 -284.13 552.3 -259.1 504.09 -185.73 447.61 -73.44 387.86 62.48 318.99 205.13 241.17 341.16 161.45 454.56 74.89 535.69 -15.87 579.71 -102.24 584.66 -186.24 554.56 -262.5 492.79 -323.33 410.36 -367.2 317.58 -388.5 218.66 -385.09 127.22 -354.44 50.27 -295.98 -11.77 -217.47 -51.13 -120.07 -67.49 -12.1 -63.18 90.41 -38.17 181.28 3.5 247.76 60.28 276.91 126.92 264.48 198.86 206.67 277.49 107.78 355.6 -24.51 430.3 -176.19 505.87 -326.24 575.28 -457.55 637.52 -550.44 698.43 -590.23 751.92 -569.97 798.09 -490.18 843.07 -364.88 881.56 -210.53 913.9 -52.33 945.85 79.73 972.4 165.12 993.53 186.63 1014.65 138.04 1029.86 30.55 1039.06 -115.04 1047.86 -276.31 1049.92 -422.93 1044.79 -531.46 1038.46 -588 1024.11 -582.66 1001.52 -518.87 977.62 -406.57 945.73 -263.4 906.77 -110.2 868.68 35.86 826.26 154.99 782.32 235.34 745.06 271.21 712.09 261.53 687.86 212.63 678.73 130.09 685.17 28.79 711.07 -78.05 757.65 -184.38 826.01 -274.71 915.74 -342 1020.37 -385.72 1138.18 -400.11 1262.05 -387.17 1379.78 -349.59 1485.73 -291.35 1569.5 -218.67 1621.61 -132.66 1637.14 -41.89 1611.98 48.47 1549.7 140.95 1453.53 227.05 1332.98 304.68 1205.82 378.9 1083.64 443.37 983.27 498.44 921.8 549.54 906.84 592.68 943.84 629.16 1030.19 663.31 1156.22 692.79 1305.96 718.74 1457.69 744.03 1590.59 767.06 1683.74 788.18Q1683.77 788.19 1683.77 788.19" opacity="0.80"></path><path d="M1649.77 641.2C1687.81 661.15 1671.51 674.36 1604.97 680.83 1497.58 686.95 1363.94 685.71 1221.52 676.81 1085.79 666.96 973.35 648.91 895.4 622.75 858.36 595.96 864.13 561.81 908.59 521.69 987.1 483.77 1087.12 443.27 1196.47 403.44 1307.89 372.21 1406.62 347.87 1484.26 334.99 1538.23 338.79 1561.92 360.29 1555.77 402.7 1521.91 465.27 1463.64 548.96 1387.02 651.83 1294.8 765.36 1195.45 887.06 1095.08 1008.35 993.92 1116.51 900.14 1205.56 816.59 1265.53 741.06 1289.27 678.34 1273.33 628 1216.69 587.37 1127.24 557.42 1010.94 535.99 880.76 521.89 756.72 513.1 651.21 507.28 580.37 505.54 557.7 503.95 587.03 500.75 667.92 499.2 790.55 494.28 940.04 484.91 1095.52 475.92 1233.03 461.69 1332.45 441.74 1376.62 421.79 1358.16 396.58 1280.19 366.71 1156.76 337.23 1006.21 303.85 851.93 267.77 715.93 233.35 614.95 197.97 562.06 163.52 561.07 133.14 610.75 106.5 700.61 86.02 816.1 72.87 945.37 69.11 1068.26 76.98 1170.49 94.55 1244.83 125.47 1280.87 170.25 1277.39 223.06 1236.56 287.14 1163.25 359.75 1066.39 431.58 951.69 503.53 831.41 569.6 714.63 620.07 604.24 653.44 509.88 663.74 434.68 646.34 377.87 600.42 341.89 525.68 324.38 427.27 324.02 309.21 336.95 179.99 358.82 52.84 390.7 -63.43 425.38 -156.55 459.39 -215.64 496.92 -234.4 529.93 -208.62 556.64 -141.92 583.54 -39.01 602.87 89 614.18 223.72 624.91 351.49 627.8 454.94 622.89 517.53 617.73 531.81 605.22 493.77 585.27 407.03 565.32 285.95 538.41 147.9 504.71 8.32 470.76 -112.05 429.58 -198.79 381.23 -244.25 332.29 -241.98 276 -194.33 212.9 -107.35 150 8.16 81.56 138.72 9.45 273.3 -59.12 397.07 -127.52 499.6 -192.17 575.03 -246.81 617.58 -291.54 627.33 -321.94 605.23 -335.19 557.15 -328.91 490.45 -300.66 408.08 -254.01 321.52 -187.05 238.06 -102.82 158.35 -12.19 92.12 83.18 42.27 174.33 -1.79 273.19 19.13 273.85 72.49 154.05 121.35 34.03 175.74 -105.11 232.47 -249 293.84 -379.12 353.96 -481.98 410.79 -542.94 469.01 -553.23 522.21 -509.88 569.39 -416.62 616.71 -288.33 657.59 -139.92 691.59 6.67 725.54 126.17 752.66 202.14 772.62 220.63 792.57 176.48 804.88 79.1 809.8 -54.44 814.66 -205.98 812.08 -349.6 802.39 -464.55 792.83 -537.76 776.6 -557.58 754.58 -523.67 733.95 -441.58 709.27 -323.08 682.47 -184.42 660.31 -39.61 639.63 92.94 623.53 200.19 617.25 274.64 620.4 309.92 636.26 306.96 666.79 267.77 713.44 200.93 777.57 116.34 855.97 18.6 949.59 -78.19 1055.44 -165.57 1165.05 -242.29 1276.52 -298.59 1382.45 -332.62 1472.72 -346.48 1543.02 -338.28 1585.91 -311.34 1596.94 -267.71 1573.73 -211.57 1516.11 -147.58 1431.39 -74.99 1323.88 -0.78 1203.92 71.71 1087.99 146.41 985.45 215.99 909.72 278.99 873.31 341.34 880.55 396.35 933.69 443.82 1028.12 490.35 1154.35 529.89 1297.87 562.63 1439.87 595.02 1562.98 621.23 1649.74 641.19Q1649.77 641.2 1649.77 641.2" opacity="0.58"></path><path d="M1615.77 386.9C1653.04 405.68 1642.12 416.63 1586.02 420.1 1491.99 423.61 1371.49 419.79 1238.79 409.2 1106.63 399.14 989.68 383.11 898.71 362.36 840.49 343.83 819.33 322.78 834.23 301.48 883.19 286.05 958.01 274.28 1049.52 269.37 1152.35 275.37 1253.51 292.78 1344.5 324.47 1422.47 370.62 1478.51 433.11 1510.25 512.19 1518.62 602.72 1502.48 705.37 1465.06 815.77 1408.55 924.3 1337.87 1028.5 1258.18 1120.41 1170.04 1190.75 1080.69 1235.4 993.96 1248.34 907.91 1228.24 829.01 1174.35 758.63 1089.61 693.33 984.95 637.34 866.71 590.13 747.47 548.32 644.37 513.82 566.57 485.22 525.76 460.35 530.21 439.29 580.6 420.63 673.81 403.77 799.19 387.61 943.25 371.15 1087.9 355.16 1213.14 337.96 1302.7 319.19 1342.62 300.41 1326.98 280.49 1258.09 259.91 1147.25 239.79 1009.14 219.91 863 201.36 727.59 177.74 582.03 156.78 568.57 166.63 688.71 181.3 801.32 205.55 919.7 240.02 1030.74 279.57 1127.41 328.54 1197.14 385.64 1235.19 443.44 1241.3 504.83 1214.6 566.11 1159.79 618.94 1080.58 663.82 985.06 695.73 881.08 708.54 771.29 701.24 665.53 670.69 568.89 616.78 480.92 539.83 407.9 442.31 350.41 331.77 306.4 212.41 277.05 92.83 260 -15.42 254.12 -105.53 256.51 -168.26 264.1 -196.93 278.26 -187.99 293.67 -140.37 307.91 -59.99 324.99 47.98 338.41 172.89 346.73 298.35 355.9 413.32 358.86 503.63 354.88 556.02 351.04 565.04 339.93 527.77 321.15 447.3 302.38 335.73 276.38 207.42 243.65 74.84 211.06 -44.17 172.06 -136.78 127.48 -195.85 83.75 -213.8 35.55 -190.59 -15.6 -129.68 -63.9 -37.87 -112.66 74.65 -159.37 199.35 -199.5 323.48 -233.64 436.96 -258.59 533.91 -272.38 606.37 -272.97 651.59 -257.91 668.85 -229.37 659.48 -184.3 627.66 -123.2 575.13 -53.43 509.93 26.53 438.39 111.71 361.06 191.08 287.43 263.17 221.72 320.22 162.03 352.87 115.32 358.67 82.37 333.02 60.02 275.42 51.31 187.51 54.56 74.1 67.35 -53.68 89.19 -187.36 117.6 -313.74 152.19 -417.81 190.09 -489.74 229.07 -519.51 271.14 -503.31 311.94 -441 349.94 -338.34 389.08 -210.19 424.14 -69.58 454.2 64.81 484.5 171.96 509.29 238.96 528.08 254.63 546.85 214.74 559.17 127.1 565.45 5.58 571.97 -135.35 572.95 -273.89 569.23 -392.03 566.65 -478.01 560.63 -519.46 552.63 -513.32 547.71 -461.93 543.16 -371.91 541.11 -255.05 545.24 -122.04 555.12 11.49 573.17 132.91 600.75 234.4 639.38 306.49 690.66 346.15 752.55 352.77 827.2 329.03 913.76 280.86 1006.34 211.13 1105.75 130.36 1207.7 46.44 1303.85 -39.34 1392.49 -116.2 1467.2 -179.86 1521.2 -232.08 1551.49 -266.62 1553.79 -283.84 1528.13 -286.59 1473.88 -274.06 1393.69 -249.23 1296.95 -213.49 1188.13 -169.99 1077.19 -122.01 978.42 -68.17 898.83 -13.77 848.5 38.81 835.88 93.64 862.78 144.45 929.07 189.92 1028.92 235.93 1153.45 275.79 1289.74 308.85 1421.77 341.95 1535.25 368.11 1615.74 386.89Q1615.77 386.9 1615.77 386.9" opacity="0.45"></path><path d="M1581.77 138.43C1618.09 156.03 1612.01 168.07 1565.68 175.01 1484.63 182.28 1377.65 185.13 1256.14 184.54 1130.36 185.42 1012.9 184.42 913.62 183.15 839.04 185.5 794.91 190.12 782.46 199.15 850.29 237.12 1003.49 310.36 1182.36 431.5 1349.25 586.36 1449.7 776.38 1471.09 972.65 1420.64 1124.57 1312.59 1204.16 1176.97 1174.41 1020.72 1043.67 875.21 837.36 753.12 624.89 695.1 547.69 643.84 499.23 599.12 487.2 556.62 515.61 519.77 582.99 487.94 684.57 457.4 809.63 430.78 946.43 407.54 1079.58 384.68 1192.67 364.5 1272.76 346.89 1308.62 329.29 1295.58 314.68 1235.31 303.26 1136.75 292.2 1011.47 285.04 875.03 282.38 743.11 281.01 628.28 285.24 543.06 295.8 494.36 308.58 485.38 328.58 514.61 356.09 576.13 417.17 771.78 504.69 984.04 606.68 1138.14 688.03 1201.67 745.54 1154.4 749.84 1025.66 682.31 841.47 540.11 650.67 336.56 485.97 121.03 347.73 -63.73 255.69 -157.37 200.89 -157.83 183.33 -125.16 171.23 -60.51 162.54 28.82 157.68 137.88 153.69 256.86 148.94 371.58 145.82 473.38 140.26 550.94 131.24 593.79 122.6 598.09 109.71 561.77 92.11 487.44 74.5 385.2 52.61 266.79 26.95 142.06 1.69 26.17 -26.53 -69.72 -56.61 -139.26 -85.05 -174.41 -113.68 -173.5 -140.76 -138.08 -164.01 -71.64 -183.18 18.66 -196.13 244.11 -202.36 465.8 -168.31 627.81 -84.35 705.84 26.08 693.45 166.33 616.88 304.38 492.39 387 364.92 392.54 261.27 292.37 176.4 101.62 133.84 -142.2 127.61 -363.67 132.62 -438.1 143.87 -478.81 159.67 -479.78 178.86 -441.03 200.51 -364.23 223.16 -256.21 247.33 -131.09 271.01 0.16 293.19 121.96 315.76 217.05 336.07 275.56 353.68 288.63 371.28 252.79 385.76 174.51 397.49 64.9 409.59 -64.75 419.7 -196.37 428.73 -314.65 444.76 -438.95 489.13 -435.02 524.64 -314.97 591.87 -76.69 692.41 161.19 831.53 328.6 989.44 395.02 1167.46 357.18 1338.1 251.41 1460.83 101.28 1514.99 -38.18 1473.63 -138.78 1348.3 -205.66 1158.19 -220.92 958.54 -197.88 881.13 -176.4 826.14 -149.75 800.64 -120.17 809.65 -86.95 853.2 -53.34 929.52 -21.02 1032.19 12.75 1153.26 43.69 1281.46 70.71 1403.36 98.07 1507.39 120.82 1581.74 138.42Q1581.77 138.43 1581.77 138.43" opacity="0.16"></path><path d="M1547.77 6.32C1581.76 39.18 1474.68 67.42 1272.76 95.97 1040.27 130.95 851.71 178.28 754.51 248.53 764.64 338.23 865.26 461.39 1014.28 617.07 1183.04 778.44 1319.13 943.81 1399.22 1081.45 1424.12 1156.09 1388.72 1150.34 1311.8 1050.27 1201.57 886.03 1081.07 687.68 967.28 519.38 849.98 451.83 751.5 512.95 675.35 699.36 601.02 947.86 547.1 1171.37 514.24 1274.62 481.38 1211.8 471.13 1011.6 483.49 761.56 497.67 550.49 536.37 452.19 596.72 484.01 653.56 627.75 719.95 820.23 779.53 996.06 805.8 1121.33 794.03 1157.26 726.06 1110.13 602.9 994.77 427.85 841.61 224.87 683.19 41.64 522.79 -88.45 389.81 -122.66 288.74 -49.55 204.79 120.29 145.71 340.1 102.46 529.34 65.53 629.76 32.89 595.77 0.03 432.24 -32.83 206.97 -64.35 1.86 -89.39 -125.46 -108.12 -130.95 -108.83 -24.03 -81.83 163.4 -37.72 376.16 41.13 562.35 150.88 724.14 311.65 628.39 403.6 484.03 206.68 383.38 -3.34 308.42 -225.29 263.57 -393.14 231.71 -449.08 225.64 -369.51 238.29 -171.14 256.13 66.21 283.45 259.77 316.31 322.63 349.17 219.42 386.02 2.58 430.15 -233.24 479.46 -406.99 545.31 -449.44 634.11 -357.82 735.9 -165.43 864.97 62.38 1016.26 260.84 1163.66 395.14 1306.09 439.86 1416.55 408.29 1469.11 313.72 1450.63 195.53 1351.8 84.81 1199.83 -20.22 1016.54 -89.27 853.18 -122.02 770.33 -135.33 794.5 -122.88 934.48 -95.89 1152.26 -62.47 1384.19 -26.54 1547.74 6.31Q1547.77 6.32 1547.77 6.32" opacity="0.82"></path><path d="M1513.77 49.34C1550.19 79.85 1463.39 122.2 1287.85 178.43 1072.43 238.96 878.25 320.47 750.18 425.85 708.6 538.52 752.95 672.76 857.42 817.83 1002.96 945.81 1145.76 1052.66 1258.79 1112.02 1339.93 1108.34 1370.48 1032.83 1357.46 889.63 1310.12 719.69 1238.46 550.86 1158.21 436.1 1066.19 422.74 981.18 521.65 911.26 717.27 840.01 950.18 787.55 1149.71 757.04 1240.62 726.53 1187.63 719.4 1012 733.1 781.98 745.48 568.4 774.98 437.79 814.12 416.6 841.49 502.12 862.9 655.43 863.21 825.22 829.2 982.25 754.84 1080.62 633.71 1109.88 480.69 1076.43 301.71 989.9 124.39 875.13 -11.84 737.53 -83.55 604.54 -64.34 489.24 41.35 378.06 218.16 290.06 421.81 224.24 585.58 162.08 666.19 116.39 629.77 85.87 481.18 55.35 275.07 41.46 77.36 46.07 -64.72 54.34 -107.45 86.83 -49.01 145.12 92.31 207.54 278.76 290.28 466.71 380.85 631.85 448.61 743.82 491.34 797.97 484.81 797.96 415.57 757.23 281.04 696.34 92.24 615.49 -109.31 541.53 -290 485.32 -397.91 431.4 -399.11 400.53 -285.89 392.29 -84.11 386.78 134.13 399.8 303.6 430.31 356.63 460.82 265.75 507.38 72.42 570.43 -148.7 636.21 -332.57 722.58 -414.14 829.38 -378.43 938.47 -241.32 1062.68 -45.12 1190.57 156.58 1298.48 331.57 1383.04 443.26 1423.06 486.95 1408.91 467.57 1333.13 404.54 1199.77 323.58 1043.6 225.54 884.51 141.55 765.53 81.76 729.44 29.25 789.51 3.26 943.36 0.27 1152.83 1.59 1365.13 18.81 1513.74 49.33Q1513.77 49.34 1513.77 49.34" opacity="0.13"></path><path d="M1479.77 248.34C1517.87 276.51 1449.79 325.38 1300.6 393.73 1106.4 463.13 915.53 552.77 767.83 658.7 684.21 760.39 674.9 867.59 727.57 965.72 831.53 1035.03 954.93 1069.29 1072.52 1052.02 1181.67 985.77 1257.24 867.13 1296.71 711.44 1309.98 560.73 1293.88 436.74 1259.09 378.69 1210.11 413.42 1156.19 540.35 1106.18 737.34 1053.01 951.52 1010.35 1127.36 982.18 1206.62 954.02 1162.7 941.67 1010.89 941.72 803.33 938.61 594.77 941.3 442.4 941.46 376.4 927.44 403.71 897.15 505.55 840.48 646.03 757.59 803.63 641.58 934.68 495.52 1019.54 341.01 1059.79 184.21 1047.52 50.93 996.47 -31.06 913.96 -47.01 817.09 15.95 721.2 143.01 618.41 317.85 529.29 501.18 459.27 639.49 389.52 701.87 339.63 663.77 311.46 529.71 283.29 343.13 278.19 156.06 294.82 5.8 311.71 -66.8 349.59 -52.89 403.57 38.91 450.65 186.42 501.14 356.11 540.23 528.44 547.88 672.25 519.71 774.66 442.54 836.32 320.77 856.25 156.33 846.7 -30.58 810.49 -200.39 765.63 -327.49 724.6 -375.47 677.29 -330.12 644.54 -193.8 630.92 3.86 617.27 200.54 623.79 346.67 651.94 390.63 680.11 311.4 728.59 141.28 795.35 -62.02 862.09 -248.15 946.07 -359.08 1042.19 -373.18 1132.04 -294.49 1223.29 -145.25 1302.92 34.78 1355.89 219.8 1376.41 371.84 1351.68 475.01 1286.2 529.2 1175.79 535.38 1032.79 509.49 892.42 454.76 770.17 393.95 698.98 341.07 705.7 283.95 794.32 245.55 955.44 229.27 1153.36 214.03 1345.66 220.17 1479.74 248.33Q1479.77 248.34 1479.77 248.34" opacity="0.41"></path><path d="M1445.77 514.82C1484.8 540.63 1433.73 585.73 1310.32 646.87 1140.37 706.32 960.62 777.73 804.56 853.61 663.48 946.54 732.36 999.27 871.99 909.56 979.21 807.64 1071.57 676.88 1140.68 537.05 1196.19 424.27 1225.4 353.03 1232.58 348.93 1228.24 422.74 1210.44 567.4 1185.75 758.6 1157.67 951.62 1129.14 1104.31 1103.32 1172.62 1077.5 1136.98 1055.61 1008.02 1035 824.64 1011 627.71 981.82 464.21 941.42 364.02 889.5 338.76 817.77 384.62 722.47 479.98 613.56 611.3 484.13 743.35 343.07 854.1 212.09 943.34 96.51 992.2 16.91 1003.77 -11.14 986.98 20.68 945.45 115.34 891.46 252.48 825.12 417.53 759.97 577.52 704.11 690.96 645.99 736.8 602.25 697.77 576.43 577.82 550.61 410.93 543.94 237.28 553.37 37.85 569.62 60.57 609.06 247.53 585.55 404.33 534.19 554.78 448.27 682.71 325.2 787.63 180.61 858.76 17.95 900.14 -140.25 916.96 -262.49 916 -331.52 907.45 -325.2 888.43 -243.95 873.35 -95.16 868.74 91.78 862.15 265.21 870.4 388.95 896.22 424.63 922.03 356.35 964.19 208.9 1019.47 25.85 1072.77 -155.4 1134.82 -285.38 1198.59 -340.28 1251.88 -317.27 1295.37 -222.88 1318.35 -83.22 1316.79 83.49 1282.73 244.87 1211.65 380.63 1117.57 488.6 997.73 556.84 867.82 590.88 758.48 596.18 680.14 582.58 655.6 562.44 698.74 531.31 807.88 506.87 970.03 496.12 1153.64 483.66 1325.77 488.99 1445.74 514.81Q1445.77 514.82 1445.77 514.82" opacity="0.28"></path><path d="M1411.77 730.21C1450.97 753.68 1415.07 786.96 1316.3 826.67 1172.43 863.45 1010.19 900.79 856.3 931.48 725.95 950.39 637.17 952.03 593.85 928.63 594.89 885.1 632.01 811.99 691.63 711.52 772.19 604.36 853.75 490.01 925.87 387.38 996.73 322.88 1049.52 304.68 1083.02 346.74 1110.45 448.61 1121.22 600.8 1118.12 780 1112.64 950.17 1097.47 1080.53 1074 1138.62 1050.53 1110.47 1019.86 1003.12 981.08 844.85 939.92 665.03 886.44 500.5 818.34 378.15 744.16 310.49 652.71 303.42 545.68 346.8 437.38 433.57 322.12 539.68 210.8 645.66 120.41 751.14 55.46 833.72 29.98 888.87 48.86 926.26 116.6 937.92 229.74 930.32 366.43 910.97 515.31 882.25 650.11 851.14 739.83 816.89 770.97 786.39 731.77 762.91 625.47 739.44 478.2 724.11 320.22 714.1 171.79 700.94 63.75 686.96 9.58 665.64 9.82 632.56 63.98 582.24 157.73 508.68 281.65 417.36 415.86 301.08 544.69 164.84 667.54 28.1 769.22 -105.84 847.46 -217.04 909.05 -284.87 950.77 -298.86 978.4 -248.42 995.9 -143.29 1008.11 7.86 1020.65 178.61 1030.54 327.83 1045.99 430.44 1069.46 458.63 1092.93 400.57 1123.31 274.97 1157.69 113.87 1189.41 -56.28 1219.91 -195.12 1243.09 -279.8 1256.14 -304.67 1253.08 -265.43 1227.68 -176.49 1185.62 -49.42 1117.64 92.75 1025.56 230.67 927.5 361.91 821.11 468.72 721.63 548.42 652.3 608.01 619.18 645.03 636.13 666.79 707.49 676.77 828.88 682.13 986.35 689.62 1153.39 694.17 1305.42 706.73 1411.74 730.2Q1411.77 730.21 1411.77 730.21" opacity="0.18"></path><path d="M1377.77 798.7C1416.38 819.83 1393.72 838.71 1317.89 853.31 1200.75 865.31 1060.74 868.21 918.08 857.72 783.94 839.14 675.38 801.67 599.49 743.33 556.54 676.69 546.47 592.42 561.92 497.34 601.26 411.33 651.91 333.85 704.46 279.79 764.34 265.01 816.03 293.34 855.03 370.08 893.51 488.15 917.3 638.39 925.69 800.53 933.2 946.89 926.59 1056.01 905.46 1104.62 884.34 1083.14 849.71 995.94 802.35 862.97 754.12 704.43 691.91 547.86 616.82 415.63 541.21 318.7 454.73 268.02 362.29 261.5 277.18 296.19 196.2 359.14 129.17 436.02 86.04 526.65 71.06 611.19 92.01 681.46 145.91 746.41 235.52 791.71 354.17 817.98 481.35 837.1 609.34 841.43 718.33 834.54 786 825.17 804.38 809.07 765.77 787.95 672.64 766.83 544.7 741.68 404.09 711.2 264.43 678.26 150.84 635.49 75.98 579.77 41.29 516.89 52.15 436.8 101.22 339.29 182.41 236.46 283.68 121.59 392.22 3.28 507.46 -101.28 614.59 -189.28 707.77 -245.97 794.02 -261.45 863.89 -229.71 918.54 -148.27 966.48 -31.52 1003.69 113.02 1033.18 263.4 1060.49 388.22 1084.11 471.14 1105.23 492.62 1126.36 444 1143.99 339.16 1156.52 200.96 1166.87 46.98 1168.09 -91.23 1156.77 -193.82 1138.74 -255.07 1103.66 -264.46 1049.98 -227.69 989.36 -151.62 912.56 -49.1 825.01 64.59 744.15 187.36 667.92 301.95 608.72 401.16 581.63 492.06 589.71 564.31 639.86 619.5 730.19 666.59 855.8 702.13 1003.6 729.97 1152.36 755.21 1284.59 777.57 1377.74 798.69Q1377.77 798.7 1377.77 798.7" opacity="0.29"></path><path d="M1343.77 689.83C1381.04 708.61 1369.56 716.24 1314.54 712.48 1223.6 707.35 1108.68 688.55 984.3 655.33 857.88 619.28 743.79 568.33 649.91 504.73 576.49 442.94 528.5 375.47 503.47 310.19 499.11 261.92 510.31 230.49 530.39 225.6 561.34 253.97 592.59 317.23 618.89 415.12 648.4 537.73 668.62 677.84 676.86 819.14 685.5 941.5 681.12 1030.7 662.35 1070.62 643.57 1054.98 611.28 986.23 567.22 878 523.57 743.52 469.19 602.27 407.14 471.63 348.3 359.78 286.12 279.09 226.23 232.21 177.21 218.04 139.05 232.61 118.8 267.31 119.22 321.6 144.95 381.92 198.82 439.9 273.15 502.16 370.39 553.97 483.05 592.11 593.67 628.61 697.9 650.74 781.59 658.49 829.37 665.18 837.04 659.18 799.77 640.4 719.3 621.62 610.17 590.95 488.05 548.86 361.29 505.69 249.49 449.4 163.45 380.35 104.17 309.68 79.96 226.94 88.39 135.74 125.15 48.82 185.25 -38.44 259.74 -117.35 347.62 -176.66 437.74 -213.5 523.37 -218.88 610.15 -191.55 687.02 -127.7 751.78 -29.61 814.16 87.26 864.92 217.82 904.22 345.06 942.41 446.04 971.02 510.98 989.8 526.62 1008.58 486.7 1016.65 401.3 1013.88 286.19 1009.99 152.13 993.39 22.71 963.56 -86.13 931.35 -170.25 885.41 -216.67 827.56 -225.49 770.88 -201.05 707.71 -147.36 644.44 -74.47 594.55 15.41 556.71 109.83 539.49 200.57 550.61 293.11 591.64 374.98 664.67 443.57 764.47 509.33 886.95 562.3 1020.95 602.83 1150.31 642.01 1263.25 671.04 1343.74 689.82Q1343.77 689.83 1343.77 689.83" opacity="0.39"></path><path d="M1309.77 452.02C1343.76 484.88 1237.27 463.06 1049.2 396.14 828.83 334.8 643.04 250.75 522.96 186.99 458.81 192.87 444.53 285.58 447.53 476.58 468.17 712.63 470.74 933.37 437.88 1036.62 405.02 973.8 339.84 776.08 262.25 540.13 202.3 329.16 165.3 206.44 186.38 172.28 263.38 210.45 414.32 278.99 610.61 333.46 774.59 397.11 867.76 418.77 833.77 385.91 670.24 353.05 454.04 268.78 268.69 148.18 143.93 36.76 121.27 -83.05 177.72 -164.29 291.44 -173.21 423.94 -85.33 537.02 101.53 654.13 313.4 734.58 497.8 767.44 560.62 800.32 457.37 782.5 249.95 722.34 37.98 666.21 -128.92 584.98 -186.77 514.31 -149.59 500.92 -42.76 558.42 92.56 707.25 210.86 916.67 334.72 1146.19 419.15 1309.74 452.01Q1309.77 452.02 1309.77 452.02" opacity="0.38"></path><path d="M1275.77 191.07C1313.87 219.24 1245.64 208.57 1106.99 173.62 926.57 151.65 750.9 133.39 611.93 150.27 501.13 220.23 432.49 355.69 392.7 547.99 367.4 749.63 346.33 923.36 318.16 1002.62 290 958.7 257.4 808.59 233.89 614.13 224.86 413.57 249.54 258.98 323.44 167.06 425.48 125.96 571.28 125.19 731.06 135.28 849.05 159.99 905.87 165.85 867.77 137.68 733.71 109.51 554.9 49.99 387.26 -23.52 246.89 -82.42 174.71 -125.61 166.86 -121.43 205.27 -66.42 275.86 58.28 348.88 238.2 432.21 412.01 495.27 550.7 523.44 594.62 551.62 515.36 542.23 353.04 507.72 172.05 483.51 0.39 456.87 -105.18 455.35 -138.22 500.11 -118.18 602.16 -55.97 763.16 14.8 951.43 98.56 1141.66 162.9 1275.74 191.06Q1275.77 191.07 1275.77 191.07" opacity="0.53"></path><path d="M1241.77 23.06C1280.97 46.53 1244.33 57.88 1152.35 67.26 1020.45 88.42 877.04 128.66 748.35 202.9 626.33 306.93 532.53 452.11 468.01 622.18 411.32 781.55 372.57 910.54 349.1 968.62 325.63 940.47 319.66 834.05 335.67 686.32 359.52 517.43 416.68 364.15 507.93 247.38 605.86 156.23 724.38 100.32 839.07 67.84 913.84 47.12 940.97 29.61 901.77 6.14 795.47 -17.32 654.54 -44.54 513.95 -64.49 379.01 -72.68 283.76 -53.41 233.97 6.97 212.93 92.98 224.92 221.35 253.26 373.04 291.52 503.57 327.89 600.47 351.36 628.62 374.84 570.53 383.19 451.06 385.61 308.89 397.93 156.03 422.57 35.75 474.36 -37.51 554.91 -80.98 675.06 -84.59 827.19 -65.08 984.98 -33.78 1135.43 -0.41 1241.74 23.05Q1241.77 23.06 1241.77 23.06" opacity="0.39"></path><path d="M1207.77 22.73C1245.04 41.51 1232.43 70.59 1180.67 112.45 1097.88 160.74 998.62 231.88 900.89 327.47 798.31 433.22 710.25 559.87 644.49 691.77 580.67 806.2 537.6 894.7 518.82 934.62 500.04 918.97 507.33 850.49 538.61 749.45 571.83 624.88 630.58 499 708.55 389.56 781.67 286.54 861.02 206.95 930.05 151.72 968.04 102.19 973.04 68.59 935.77 49.81 855.29 31.03 751.04 28.86 643.01 45.84 529.83 68.53 436.2 118.81 370.62 197.22 317.67 282.05 291.1 388.02 285.76 498.82 286.46 586.1 298.43 646.97 317.21 662.62 335.99 622.7 359.8 541.81 391.64 441.15 429.52 323.01 485.39 216.27 562.95 135.13 653.13 64.15 766.67 22.32 893.61 6.57 1015.39 -2.74 1127.25 3.94 1207.74 22.72Q1207.77 22.73 1207.77 22.73" opacity="0.80"></path><path d="M1173.77 190.23C1211.87 218.39 1143.17 326.43 1035.18 490.31 898.02 651.73 790.41 821.36 762.25 900.62 734.08 856.69 790.69 709.86 890.93 555.92 962 390.69 1007.87 277.43 969.77 249.26 835.69 221.09 672.4 283.36 554.91 411.67 447.13 528.7 405.91 652.69 434.08 696.62 462.24 617.36 554.47 470.56 699.16 346.06 853.56 219.1 1039.69 162.06 1173.77 190.23Q1173.77 190.23 1173.77 190.23" opacity="0.13"></path><path d="M1139.77 451.04C1166.68 488.59 1023.57 736.81 986.02 866.62 948.46 781.93 1030.68 553.32 1003.77 515.77 809.26 478.21 619.58 645.93 657.14 730.62 694.69 600.81 945.26 413.48 1139.77 451.04Q1139.77 451.04 1139.77 451.04" opacity="1.00"></path></g></svg>